<?xml version="1.0" encoding="utf-8"?>
<!-- Generator: Adobe Illustrator 16.0.0, SVG Export Plug-In . SVG Version: 6.00 Build 0)  -->
<!DOCTYPE svg PUBLIC "-//W3C//DTD SVG 1.1//EN" "http://www.w3.org/Graphics/SVG/1.1/DTD/svg11.dtd">
<svg version="1.1" id="Layer_1" xmlns="http://www.w3.org/2000/svg" xmlns:xlink="http://www.w3.org/1999/xlink" x="0px" y="0px"
	 width="1288.43555px" height="876.08643px" viewBox="0 0 1288.43555 876.08643" enable-background="new 0 0 1288.43555 876.08643"
	 xml:space="preserve">
<rect x="-2479.51465" y="324.87402" display="none" fill="#053E3F" width="1920" height="639.99951"/>
<g>
	<path d="M828.34277,338.97656c-0.88477-2.33301-1.75098-4.68555-2.61621-7.04102l-2.50488-6.76074l-0.07031-0.18652
		c-5.06836-12.26172-16.0293-20.64258-28.58887-21.86523c-2.79102-0.33594-5.5918-0.64209-8.38867-0.94824l-7.70117-0.84375
		c-4.99512-0.5-9.93457-0.04785-14.61816,1.24512c-0.0459-4.94824-1.01074-9.89941-2.95703-14.57275
		c-2.16602-5.27393-4.33301-10.54834-6.47656-15.77686l-0.11035-0.2793c-3.05566-6.89648-7.63184-12.6709-13.21289-16.94434
		c7.34863-2.45898,13.91699-6.82861,18.74121-12.66357c3.74707-4.3877,7.53027-8.7749,11.30273-13.08838
		c0.10156-0.10352,0.16602-0.17725,0.18066-0.20557c9.10449-10.99463,11.73047-24.72656,7.17871-37.75146l-0.0752-0.20117
		c-1.92188-4.87646-3.80371-9.77344-5.70801-14.75195c-4.79102-12.22754-16.34277-21.00195-30.13672-22.89795
		c-5.84375-0.83984-11.14941-1.54736-16.7041-2.22607c-7.76465-0.89063-15.5752,0.36475-22.60156,3.43799
		c0.3877-5.13525-0.27246-10.36914-2.06348-15.49463l-0.0752-0.20313c-1.92285-4.87842-3.80566-9.77295-5.71094-14.75293
		c-4.79004-12.22656-16.33984-21.00098-30.13574-22.89648c-4.75391-0.69434-10.05859-1.40234-16.70215-2.22754
		c-4.56836-0.52393-9.15332-0.29053-13.58887,0.60254c0.2207-3.54053-0.12305-7.06006-1.10156-10.4248l-0.06445-0.19434
		c-1.30078-4.0459-2.55859-8.1123-3.80957-12.2002L629.90137,76.5c-3.99805-11.03857-14.00977-17.88477-26.78125-18.31445
		c-5.4707-0.16895-10.0332-0.26221-14.46387-0.33789h-0.20801c-11.02148,0-22.08984,4.61572-32.01172,13.34863l-0.09375,0.09326
		c-61.9375,42.50586-98.9043,112.62598-98.9043,187.67969c0,125.43799,102.04785,227.49219,227.48438,227.51758h0.03711
		c34.92188-0.00391,68.4375-7.71875,99.61523-22.93164c0.84277-0.41016,15.20898-10.56055,23.47656-21.01563
		c7.93457-9.74072,10.11719-20.23389,6.14453-29.54932c-0.83008-1.94434-1.65918-3.86914-2.50391-5.7793
		c-0.47656-1.12695-2.11816-4.90039-2.11816-4.90039c-1.31348-2.93262-3.10449-5.52148-5.27832-7.75195
		c3.30664-2.33984,6.31152-5.18311,8.89941-8.49902c0.86328-1.14063,7.59082-9.91016,9.2666-12.20801
		c0.10352-0.10449,0.17871-0.20898,0.2334-0.29492C830.30859,362.59131,832.31738,350.31982,828.34277,338.97656z
		 M796.71484,413.7207c0.8291,1.88184,1.6543,3.76367,2.46582,5.66309c1.875,4.38574-0.97461,9.32617-3.66309,12.66504
		l-2.04102,2.2959c-2.18164,2.45801-4.36133,4.91748-6.62402,7.38428c-4.28906,4.76172-11.0957,8.05078-18.64844,9.01758
		c-5.12402,0.50586-9.36816,0.86133-13.76563,1.14844c-4.51563,0.32617-10.5127-0.58984-13.76074-3.98047
		c-0.23828-0.41797-0.47363-0.83398-0.73828-1.24414l-0.53418-0.81836c-2.14063-3.21875-4.05664-6.12109-5.85352-9.04541
		l-0.09473-0.15918c-0.27734-0.43164-0.5791-0.8457-0.87793-1.26074c-1.67188-4.40137-0.06152-8.52148,1.65723-11.26563
		c0.37793-0.40918,0.75684-0.82227,1.11816-1.24805c3.25977-3.95898,6.51855-7.93359,9.7793-11.91016l0.12988-0.17383
		c0.28613-0.36719,0.54492-0.74609,0.8125-1.12012c4.44824-4.59277,10.32324-7.51074,16.40234-8.14063
		c0.97949,0.10449,1.96582,0.18066,2.96777,0.20703c5.6709,0.15137,10.36816,0.2334,14.68262,0.25977v0.04492l0.94727-0.00293
		c0.85156-0.00391,1.69629-0.04004,2.54102-0.09766c3.68652,0.55566,8.85254,2.19043,10.98438,6.93164L796.71484,413.7207z
		 M473.77637,258.96924c0-24.20068,4.14941-47.84717,11.96484-70.06201c0.97754,0.46094,11.05859,1.06152,15.03613,1.23047h0.36133
		c0.38672-0.00098,0.77246-0.02734,1.15723-0.04395c4.36719,1.18701,6.74805,4.99902,8.00098,8.20215
		c0.12988,0.69238,0.26953,1.38379,0.43652,2.06934l0.04199,0.15088c1.41016,5.32813,2.90918,10.5957,4.43164,15.56104
		c0.0293,0.14404,0.08496,0.32129,0.13281,0.43652c0.14551,0.40576,0.30957,0.79492,0.46582,1.19434
		c1.52734,7.51563,0.4707,14.96875-3.08594,21.75195c-0.18848,0.26025-9.82031,16.14648-10,16.50586
		c-2.5166,3.48828-6.05762,6.98242-10.31641,7.42285c-0.70703-0.17676-17.0918-2.43604-18.5918-1.729
		C473.7998,260.76221,473.77637,259.86816,473.77637,258.96924z M595.77441,435.73438
		c-0.25684-0.40625-0.4873-0.80957-0.76367-1.21875l-0.3125-0.43359c-2.76172-3.9209-5.52148-7.84375-8.32813-11.90723
		c-0.36719-0.50879-0.76953-0.96973-1.14648-1.45996c-2-3.60449-3.39844-8.4082-1.3623-13.5166
		c0.08496-0.11816,0.18262-0.22168,0.2666-0.3418c0.0918-0.11328,0.16309-0.22363,0.2998-0.44727
		c2.10938-3.44531,4.40723-7.1543,7.08594-11.41797c0.32227-0.52734,0.62012-1.06738,0.90918-1.60938
		c3.03027-3.53369,7.85156-5.23584,14.33789-5.0835c0.56543,0.12158,1.12695,0.24854,1.70215,0.35205
		c0.10156,0.02734,0.25879,0.05518,0.31055,0.05518c5.51074,0.80811,11.03125,1.51123,16.36621,2.18994l0.44141,0.05566
		c1.05957,0.1333,2.14063,0.20898,3.22949,0.25781c6.2373,1.56738,11.95605,5.36133,15.59863,10.32227
		c0.36914,0.7666,0.7666,1.52441,1.19824,2.27246c2.38379,4.19727,4.91992,8.51953,8.00781,13.64648l0.22949,0.3418
		c0.20703,0.30762,0.43359,0.60254,0.65039,0.90527c1.54297,3.44434,2.87305,8.49512,0.38672,12.85547
		c-0.33301,0.37793-0.66895,0.75195-0.98242,1.14355c-3.09277,3.94043-5.58496,7.1499-7.84766,10.13037
		c-0.29492,0.39063-0.55762,0.79102-0.82813,1.18945c-4.45313,4.40234-12.18555,4.19531-15.50781,3.87305h-0.03711
		c-3.90137-0.47461-8.17188-1.04883-14.70996-1.97461C607.16016,444.58447,600.28418,440.89307,595.77441,435.73438z
		 M733.2959,399.42383c-0.25684,0.28711-0.52344,0.56738-0.77539,0.86133l-0.15039,0.1748
		c-3.01953,3.68848-6.05469,7.375-9.09473,11.06445l-0.59082,0.72656c-0.06738,0.06836-0.13184,0.14648-0.24316,0.29199
		c-0.26172,0.33887-0.49707,0.68848-0.74316,1.0332c-4.16797,4.26758-9.93164,6.80273-16.26172,7.15625
		c-0.82617-0.09668-1.66406-0.17383-2.50684-0.22949l-5.40625-0.29883c-3.5625-0.19629-7.10352-0.39453-10.5918-0.62402
		c-1.11816-0.08301-2.23145-0.10742-3.34082-0.10547c-5.85547-1.0498-11.1582-4.3457-15.06152-9.32715
		c-0.13965-0.26953-0.26172-0.54297-0.4082-0.8125c-0.05371-0.13184-0.12988-0.27051-0.21582-0.41309
		c-2.54004-4.27148-5.23047-8.82813-7.81055-13.32861c-0.45898-0.79785-0.95508-1.57764-1.4707-2.34326
		c-2.01953-5.06592-1.5791-10.5918,1.19531-15.6748c0.27539-0.33008,0.55762-0.6582,0.82227-1.00098l0.1709-0.23145
		c3.14551-4.35156,6.30957-8.68262,9.49121-12.99512c0.52344-0.70898,1.01563-1.44141,1.48242-2.18604
		c5.13379-5.44043,12.01367-6.87061,17.09961-7.05127c0.80566,0.14111,1.61719,0.26563,2.43652,0.36133
		c0.19336,0.06201,0.35645,0.05664,0.39648,0.06104c3.36426,0.29199,6.71973,0.6167,10.07227,0.94092l7.1748,0.67383
		c0.2627,0.0625,0.51758,0.06396,0.64258,0.0625c0.66309,0.03809,1.30762,0.03809,1.95117,0.03809
		c4.83105,1.09961,11.31055,3.66455,15.22363,9.59912c0.33496,0.88623,0.69824,1.76221,1.11035,2.61816
		c2.20703,4.6958,4.43457,9.37354,6.69727,14.03076l0.12598,0.2334c0.25098,0.4751,0.52441,0.93311,0.79199,1.39258
		C737.19238,389.37988,736.41309,394.70215,733.2959,399.42383z M526.70703,386.66895
		c-0.14063-0.34961-0.27441-0.7041-0.4668-1.0415c-2.77148-4.81592-5.17383-9.0835-7.79297-13.8335l-0.10742-0.17188
		c-0.28223-0.48438-0.57227-0.9502-0.86035-1.41748c-1.95703-4.35107-3.97559-10.95752-2.00488-17.01318
		c0.25293-0.46631,0.50488-0.93848,0.73926-1.42285c1.83691-3.93457,3.74414-7.78906,5.86719-12.0498
		c0.27344-0.54199,0.50586-1.08545,0.74902-1.62891c2.25977-3.32275,6.13867-5.31836,10.33301-5.32666
		c0.77246,0.19873,1.55469,0.37451,2.35059,0.52393c5.01074,0.86719,10.02734,1.6958,15.05371,2.53027
		c0.14063,0.02734,0.2666,0.04053,0.26172,0.03906c0.66992,0.08691,1.33594,0.14648,2.00391,0.19873
		c6.06836,1.79834,11.37207,5.98291,15.04004,11.87939c0.35645,0.85254,0.73633,1.70166,1.15527,2.53809l2.58398,5.17041
		c1.69434,3.39209,3.42969,6.87402,5.28418,10.4043l0.11035,0.18945c0.24902,0.43506,0.51563,0.84814,0.77539,1.27148
		c1.79492,4.46631,3.45898,11.2168,0.7041,17.22314c-0.30469,0.42676-0.59668,0.85449-0.86816,1.27734l-0.21094,0.2251v0.11865
		c-2.36523,3.75146-4.69043,7.52246-6.96289,11.25391c-0.0918,0.12891-0.17383,0.26855-0.31445,0.52637
		c-0.05469,0.10547-0.09961,0.21387-0.15332,0.31934c-2.66504,3.21582-6.3584,4.67871-11.03809,4.31934
		c-0.54688-0.15137-1.07617-0.33691-1.62891-0.46973l-0.30371-0.05859c-5.0918-1.07715-9.51074-2.05078-13.50879-2.97168
		c-0.83398-0.19141-1.66406-0.33887-2.48926-0.46387C535.47266,396.73828,530.31836,392.35889,526.70703,386.66895z
		 M517.45605,263.35156l0.10938-0.17285c2.55664-4.31738,5.28223-8.8042,8.31738-13.69092l0.12695-0.19678
		c0.25586-0.43457,0.4873-0.87549,0.72949-1.31348c2.70215-3.42334,7.30566-7.68555,13.64453-8.07959
		c0.87207,0.17578,1.75684,0.32471,2.65625,0.4292c3.65527,0.43359,7.30957,0.88428,10.96387,1.33691l4.2666,0.52344
		c0.29004,0.04443,0.64258,0.0791,0.88477,0.08594c0.52441,0.02734,1.03418,0.02588,1.54492,0.02832
		c5.96875,1.54492,10.91992,5.72168,14.02344,11.82129c0.20801,0.68457,0.41797,1.36816,0.66016,2.05176l0.07422,0.19922
		c2.18555,5.54297,4.39063,11.06543,6.6582,16.6748c0.34082,0.81494,0.71094,1.60938,1.09961,2.39648
		c2.02734,7.04688,1.16797,14.36914-2.4375,21.00586c-0.14844,0.19141-0.30762,0.37012-0.45508,0.56689
		c-0.08301,0.10449-0.16699,0.2085-0.24805,0.32959c-2.77539,4.09473-6.05469,8.95313-9.27734,13.90527
		c-0.05469,0.07324-0.10547,0.15332-0.20898,0.33057c-0.2168,0.35986-0.4082,0.73389-0.60938,1.09912
		c-3.0127,3.64404-7.74316,7.2417-14.63379,7.13477c-0.56738-0.13477-1.13184-0.26855-1.70605-0.37695l-0.3125-0.07031
		c-4.97168-0.80859-9.96191-1.65771-14.82617-2.4834c-0.8623-0.16016-1.7207-0.27246-2.58008-0.35645
		c-6.32813-2.15625-10.45508-7.46045-13.00391-12.29102c-0.17285-0.48145-0.34277-0.96045-0.51758-1.42041
		c-0.04492-0.18896-0.12402-0.36084-0.14258-0.39307c-1.52539-3.58008-2.98047-7.32764-4.3877-10.9502l-1.7666-4.56152
		l-0.07813-0.21582c-0.23633-0.55859-0.48242-1.0957-0.72754-1.63477c-2.05762-7.14697-1.4834-14.33789,1.66602-20.98877
		C517.12695,263.83105,517.29395,263.59961,517.45605,263.35156z M658.37988,351.64697
		c-0.4707,0.56201-0.92969,1.13232-1.36719,1.72461c-3.22461,4.35693-6.42969,8.73145-9.58398,13.10693
		c-0.04785,0.06299-0.08789,0.12305-0.18457,0.27246c-0.21387,0.31836-0.40039,0.64551-0.60156,0.96924
		c-4.08691,4.53955-9.80078,7.11963-15.94629,7.17285c-0.98047-0.19385-1.96484-0.36572-2.95703-0.49072
		c-6.13574-0.77051-11.29004-1.43848-16.49121-2.19824c-0.15918-0.02637-0.34766-0.05273-0.44238-0.04883
		c-0.43555-0.03711-0.83691-0.04492-1.25977-0.07227c-7.43457-1.76709-13.16992-5.89453-17.42773-12.52979
		c-0.13867-0.30469-0.26172-0.60791-0.40625-0.91406c-0.05469-0.13428-0.11133-0.27051-0.16895-0.35938
		c-2.00195-3.79736-3.95801-7.7124-5.77441-11.3833l-1.92578-3.84668c-0.34961-0.69043-0.71973-1.36621-1.10059-2.03418
		c-2.49512-6.37842-2.11035-13.3252,1.07422-19.56348c0.14355-0.19531,0.29492-0.38086,0.43652-0.58008
		c0.15723-0.1582,0.25781-0.32373,0.3125-0.41602c2.57617-3.95117,5.48242-8.29883,9.10156-13.62109
		c0.10547-0.12891,0.18457-0.25977,0.25781-0.38086c0.18066-0.29297,0.33887-0.59521,0.51172-0.88965
		c4.4082-5.14648,10.15234-8.03027,16.29492-8.19238c1.07129,0.22949,2.15039,0.4248,3.23926,0.55566l8.16797,1.09424
		c3.08984,0.41943,6.17578,0.8374,9.23242,1.23682c0.16211,0.02539,0.33594,0.0542,0.41016,0.04492
		c0.65723,0.05469,1.30762,0.09863,1.95605,0.125l-0.06348,0.06934h0.44336c6.91992,1.89258,12.45508,5.89453,15.99219,11.66992
		c0.35254,0.97559,0.73535,1.94629,1.16895,2.9043c2.43066,5.375,4.88281,10.74609,7.35059,16.06055
		c0.43945,0.95801,0.92871,1.88574,1.44336,2.80078C661.94824,339.94727,661.31738,346.45996,658.37988,351.64697z
		 M579.36816,151.07813h0.00684c4.82227,1.2085,8.9082,4.49561,11.16602,9.01416c0.19531,0.79736,6.37305,19.11572,6.58496,19.61084
		c1.4834,6.85059,0.18945,13.94629-3.65527,20.05664c-0.5293,0.6084-13.27637,17.3916-13.59668,17.89453
		c-4.60547,5.23486-10.5,8.00293-17.57715,8.26367c-0.44434-0.08008-19.0957-2.35059-20.06348-2.37939
		c-5.79102-1.78418-9.03125-6.74951-10.71289-10.56494c-0.10254-0.42676-0.19531-0.85449-0.30664-1.27979
		c-0.02246-0.14502-0.05566-0.31494-0.10449-0.43164c-1.60156-5.13037-3.07227-10.50146-4.3291-15.13965
		c-0.16504-0.60107-0.3584-1.18066-0.54883-1.76172c-1.0293-6.69775,0.50195-13.8042,4.25586-19.73779
		c0.42188-0.51758,0.8418-1.0376,1.24805-1.57666c2.80078-3.75781,5.95313-7.89111,10.22559-13.40723
		c0.33105-0.43359,0.63867-0.87256,0.95605-1.30957c4.69629-5.15771,10.32813-8.26807,15.97852-8.7832
		C559.73242,149.67334,578.42285,151.07813,579.36816,151.07813z M475.7627,277.47559
		c3.9043,0.6792,7.82813,1.33984,11.79102,1.98242c0.7041,0.1123,1.43457,0.15527,2.1582,0.20801
		c4.88477,1.8877,8.23633,7.00586,10.20801,11.05811c0.20898,0.66357,0.42188,1.32715,0.66113,1.98779l1.24023,3.22656
		c1.78027,4.60986,3.40039,8.76514,5.10742,12.78906c0.04492,0.1875,0.12305,0.34131,0.15234,0.39648
		c0.25586,0.55664,0.53125,1.09375,0.7998,1.63477c1.83887,5.67236,3.00391,12.97363,0.43945,19.66748
		c-0.33691,0.57373-0.66504,1.15479-0.96387,1.75928c-1.99609,4.0166-4.12012,8.31055-6.09766,12.51855
		c-0.21777,0.47266-0.40918,0.9541-0.60156,1.43555c-1.1875,1.8252-3.16211,3.76318-6.19238,3.6958
		c-0.0459-0.01318-0.09082-0.02637-0.13379-0.04053c-10.6875-22.33984-17.55176-46.8418-19.76563-72.65234
		C474.95605,277.27441,475.34668,277.4043,475.7627,277.47559z M553.67285,418.53516l0.26172,0.05078
		c0.59961,0.10449,1.19434,0.17871,1.78809,0.25684c6.23535,1.96094,11.71582,5.7793,16.04102,11.16699
		c0.3457,0.57227,0.69824,1.14453,1.08105,1.70898l0.99805,1.44922c2.06348,3.0166,4.2002,6.03369,6.28516,8.9751l0.10645,0.15039
		c-12.79199-7.3335-24.7373-15.9751-35.67578-25.72705C547.74121,417.27441,550.80273,417.93652,553.67285,418.53516z
		 M642.05469,463.37354c0.24121,0.85352,0.5293,1.70508,0.86621,2.55469c-2.47852-0.50391-4.93848-1.05859-7.38574-1.64648
		C637.80566,464.14502,639.98047,463.84619,642.05469,463.37354z M743.93848,315.31152
		c-0.41895,0.48975-0.83789,0.97607-1.2373,1.48828l-1.2998,1.73926c-1.34668,1.76074-2.69727,3.52832-4.03711,5.2959
		l-4.89258,6.39795c-0.50586,0.64502-0.98438,1.31104-1.44629,1.98389c-5.39453,5.72949-12.2832,7.44482-17.95801,7.65918
		c-0.60156-0.11035-1.19922-0.22656-1.81055-0.31592c-0.1582-0.02295-0.29492-0.0415-0.375-0.03662l-8.14453-0.79053
		c-3.12891-0.30859-6.26367-0.61377-9.4707-0.89209l-0.15137,0.00195c-0.8623-0.05176-1.71777-0.07324-2.56641-0.08203
		c-6.5166-1.49316-12.16797-5.37354-15.5957-10.73926c-0.3584-0.96484-0.74512-1.91992-1.18164-2.8623
		c-2.44629-5.25391-4.83691-10.52637-7.22754-15.7915l-0.0791-0.17822c-0.41113-0.89844-0.85938-1.77295-1.3252-2.63184
		c-1.97949-6.52148-0.89648-13.6416,3.00195-20.10254c0.19238-0.22607,0.39355-0.44287,0.58691-0.67578l0.21191-0.2749
		c3.56055-4.70947,7.13672-9.4165,10.79395-14.146l0.13184-0.17871c0.24805-0.34863,0.47168-0.70801,0.71094-1.06055
		c5.75488-6.24609,13.53027-9.20313,22.09375-8.25684l9.92773,1.40234c2.53418,0.35449,5.0752,0.71191,7.63574,1.08447
		c8.23926,1.14111,15.37598,6.78906,19.07813,15.08057c2.14844,5.27832,4.31641,10.55371,6.50488,15.83398
		C748.62988,301.01465,747.83887,309.04785,743.93848,315.31152z M706.6084,238.40234
		c-8.13672-1.14941-14.48633-6.12354-17.4541-13.65625l-0.04395-0.12988c-2.0166-5.89453-3.63379-10.71436-5.08105-15.11377
		c-2.26758-7.0874-0.15039-15.35498,5.52637-21.57568c4.20508-4.62305,8.07227-8.74805,11.5332-12.30469
		c5.86816-6.12451,14.41406-9.20898,22.85059-8.2334c5.60645,0.70313,10.95801,1.41699,16.36133,2.18311
		c7.85254,1.08643,14.59375,6.03955,17.16797,12.61182c1.86621,4.90039,3.76953,9.80225,5.66211,14.64795
		c2.5498,7.45215,1.00293,15.14844-4.3418,21.64844c-3.8291,4.39209-7.61719,8.78467-11.47461,13.30371
		c-5.38574,6.52881-14.57715,10.02783-23.39648,8.9165c-3.34277-0.45557-6.6748-0.89209-10.01074-1.33057L706.6084,238.40234z
		 M681.5166,166.36133c-3.82617,4.37402-7.61621,8.78613-11.47363,13.3042c-4.84277,5.87354-12.76465,9.28369-20.73047,9.10205
		c-0.72754-0.17139-1.4541-0.33691-2.19629-0.47656c-0.11328-0.02393-0.26758-0.05566-0.31934-0.04785
		c-4.73047-0.64063-9.46191-1.26221-14.20996-1.88477l-3.31348-0.43457c-0.91992-0.10645-1.84277-0.17676-2.7627-0.21973
		c-6.19434-1.646-11.07813-5.69873-13.87109-11.45654c-0.12598-0.46826-0.23926-0.93896-0.38184-1.4043
		c-0.01758-0.07275-0.04395-0.14502-0.09766-0.30664c-2.0918-6.13867-3.6748-10.84668-5.16406-15.35254
		c-0.23828-0.71533-0.50879-1.41162-0.79395-2.10205c-1.05469-5.75244,0.55664-12.00586,4.43359-17.21533
		c0.58789-0.58203,1.16504-1.17822,1.72168-1.79297c3.64551-3.97998,7.53809-8.21045,11.53223-12.30225
		c0.62207-0.64502,1.21973-1.30615,1.79297-1.97705c5.73633-4.94824,13.39355-7.37012,20.98535-6.50488
		c5.83594,0.7251,11.18848,1.43994,16.36328,2.18555c7.84863,1.06592,14.58691,6.01172,17.16602,12.58984
		c1.86523,4.90234,3.76758,9.80273,5.65918,14.64844C688.4082,152.1665,686.85938,159.8623,681.5166,166.36133z
		 M612.04102,112.19287c-4.16504,4.29688-8.31738,8.79297-11.83398,12.625c-0.54297,0.59668-1.06055,1.20801-1.56641,1.8291
		c-5.0127,4.74316-11.48926,7.68311-17.83887,8.0459c-0.91895-0.15723-1.85156-0.28467-2.79395-0.36279l-3.83105-0.29346
		c-3.81934-0.29736-7.62305-0.59473-11.50586-0.85645c-0.82715-0.04834-1.65234-0.06104-2.47656-0.05029
		c-3.42871-0.82227-6.74609-2.91211-8.27148-6.40332c-0.10547-0.72412-0.23438-1.43945-0.38867-2.15039
		c-0.88086-4.08301-1.71582-8.30029-2.48145-12.53809c-0.08984-0.49512-0.2334-0.96973-0.40918-1.43066
		c-0.31152-6.41797,3.92969-12.43848,7.72559-16.48584l0.14941-0.16992c4.56543-4.64795,7.7002-7.72119,10.76953-10.56152
		c4.80469-4.19971,12.36133-9.20654,21.18359-9.20654c4.27246,0.0752,8.75195,0.16895,14.11621,0.33838
		c2.76855,0.08838,9.46191,0.98486,11.84766,7.3418c1.22656,4.0166,2.46973,8.03369,3.74512,12.0249
		c1.72852,6.01563-0.88867,12.17725-4.36328,16.56299C613.20996,111.01367,612.61719,111.59229,612.04102,112.19287z
		 M532.71191,115.05176c0.78418,4.30566,1.64941,8.66846,2.56543,12.9624c0.16406,0.81787,0.375,1.61768,0.6123,2.40381
		c0.36426,5.37842-1.66309,11.64307-5.62598,17.47852c-0.39551,0.44775-0.79297,0.8916-1.17871,1.3584l-0.14941,0.19238
		c-4.00684,5.1792-7.2041,9.37158-10.37305,13.59912c-0.53223,0.71436-1.03516,1.4458-1.52051,2.18652
		c-2.78516,3.1792-7.65234,7.55322-13.81836,8.40967c-0.38184-0.05176-0.75977-0.11621-1.14844-0.15234
		c-0.18359-0.02539-0.33008-0.02441-0.44824-0.02686c-3.19434-0.13477-6.3916-0.24951-9.58691-0.36182
		c9.85156-22.12354,23.48242-42.49561,40.38672-60.15674C532.49707,113.64795,532.59082,114.35107,532.71191,115.05176z
		 M663.44824,467.17041c-1.20117-1.35352-2.36621-2.70508-3.49414-4.00977c-2.5498-3.39258-3.10938-6.40625-1.71289-9.16797
		c0.32031-0.37695,0.67285-0.7207,0.97656-1.11523c2.52051-3.31055,5.09961-6.62305,7.67676-9.89648
		c0.36816-0.4707,0.70801-0.95313,1.03906-1.4375c3.91406-3.86963,9.51172-5.46729,14.53418-5.68994
		c1.05273,0.13965,2.11328,0.25195,3.18555,0.30469c3.84668,0.24609,7.69434,0.47168,11.53906,0.67773l4.79688,0.26563
		c0.60254,0.03906,1.20801,0.03906,1.81152,0.03906l0.79199-0.03125c4.07813,0.61035,10.10059,2.29346,13.96094,6.85986
		c0.22559,0.43945,0.44336,0.87891,0.69141,1.31055l0.12988,0.21289c1.9873,3.20313,4.05957,6.33008,6.06348,9.35547
		l0.60156,0.89648c0.29688,0.45117,0.60938,0.88672,0.93359,1.31641c0.93848,2.46875,0.22852,5.01367-2.19141,7.73438
		c-0.49316,0.55469-0.86426,1.17383-1.17773,1.81055c-12.63867,2.33203-25.54102,3.52539-38.66406,3.52539
		c-6.82422,0-13.56836-0.33789-20.22949-0.97266C664.38184,468.44971,663.98145,467.77197,663.44824,467.17041z M800.2666,376.05518
		c-4.12695,5.26221-10.18164,8.66846-16.56543,9.43604c-0.7334-0.06641-1.47754-0.11963-2.23438-0.14941h-0.23926
		c-5.00391-0.01953-9.96387-0.10645-15.16211-0.2627c-1.00781-0.0293-2.01758-0.00244-3.02441,0.04443
		c-5.3584-0.86719-9.86719-3.81445-12.83789-8.36182c-0.15918-0.38965-0.30469-0.78125-0.47461-1.16797
		c-0.04395-0.17285-0.11328-0.3125-0.16113-0.40527c-2.00391-4.12549-3.96289-8.26465-5.90234-12.36768l-0.68359-1.44336
		c-0.39746-0.86475-0.8418-1.70264-1.30566-2.52637c-1.61523-5.46338-0.61426-11.91553,2.62012-16.99854
		c0.39355-0.45801,0.78223-0.91992,1.15527-1.39844c1.03418-1.33301,2.05078-2.67041,3.07031-4.00684l1.96191-2.57275
		c1.29883-1.68799,2.59473-3.38672,3.90137-5.09375l1.37891-1.8042c0.3916-0.51953,0.75781-1.05371,1.12598-1.58789
		c5.07031-5.58301,12.51465-8.59424,19.87793-7.84375l8.28418,0.91504c2.55371,0.2793,5.13281,0.56348,7.7793,0.87695
		c6.68359,0.6582,12.36035,5.05762,15.16992,11.72949l4.9873,13.45605c2.75781,7.86328-0.45605,15.00537-3.61719,19.58887
		c-1.95703,2.63281-3.95117,5.22949-5.94434,7.82568L800.2666,376.05518z M822.30371,325.41016c0-0.00293,0-0.00293,0-0.00293
		h0.00195L822.30371,325.41016z"/>
	<g>
		<path d="M167.38379,824.06494c-15.91992,0-29.95898-2.67383-42.06836-7.99805
			c-12.10938-5.34766-22.23535-12.5293-30.37988-21.58984c-8.12207-9.06445-14.28809-19.31445-18.42285-30.75391
			c-4.16113-11.4375-6.21484-23.25-6.21484-35.45703v-5.5957c0-11.68555,1.98145-23.125,5.96484-34.31836
			c3.99121-11.19141,9.90527-21.29492,17.80469-30.35547c7.87598-9.0625,17.62988-16.26758,29.2168-21.5918
			c11.61426-5.34766,24.93555-7.99805,40.03906-7.99805c16.44141,0,30.92578,3.04492,43.45508,9.16211
			c12.5293,6.0918,22.60547,14.5332,30.23047,25.28125c7.62695,10.76953,12.11035,23.17578,13.47266,37.23828h-36.59863
			c-1.01465-7.94727-3.88477-14.78125-8.63965-20.45117c-4.75586-5.67188-10.7207-10.02734-17.92773-13.09961
			c-7.20508-3.04492-15.20117-4.58008-24.01758-4.58008c-8.81348,0-16.21875,1.53516-23.24902,4.58008
			c-7.03418,3.04492-13,7.4043-17.92773,13.09961c-4.9248,5.66992-8.69043,12.4043-11.31445,20.20313
			c-2.625,7.80078-3.93652,16.44336-3.93652,25.92578c0,10.17578,1.43457,19.31055,4.30664,27.43359
			c2.87305,8.14453,6.95703,15.03125,12.20898,20.72461c5.24707,5.66992,11.61133,10.00391,19.0625,12.95117
			c7.4541,2.96875,15.74902,4.45703,24.91211,4.45703c12.52734,0,23.41992-2.57617,32.65723-7.75
			c9.2373-5.17773,16.04688-11.91016,20.45215-20.20508l-6.36328,29.2168v-47.78711h33.30469v41.17578
			c-7.97461,12.03516-18.81934,21.39258-32.53711,28.07813s-29.5625,10.02734-47.51367,10.02734L167.38379,824.06494z
			 M161.78809,751.91455v-26.94141h101.14746v26.94141H161.78809z"/>
		<path d="M356.20801,824.06494c-12.20605,0-22.95117-1.95703-32.28711-5.84375
			c-9.30957-3.88672-17.20996-9.16016-23.64648-15.74609c-6.43652-6.61133-11.31641-14.13867-14.61035-22.60742
			c-3.29199-8.4668-4.95215-17.35938-4.95215-26.69141v-5.34961c0-9.48242,1.68164-18.49414,5.07617-27.0625
			c3.39258-8.54297,8.34375-16.16992,14.85938-22.87891c6.50781-6.68555,14.4834-11.93359,23.89063-15.74805
			c9.40918-3.8125,19.95703-5.71875,31.64551-5.71875c11.6875,0,22.18457,1.90625,31.51855,5.71875
			c9.31055,3.81445,17.23242,9.0625,23.77148,15.74805c6.51367,6.68555,11.46484,14.31055,14.85742,22.87891
			c3.3916,8.56836,5.07617,17.58008,5.07617,27.0625v5.34961c0,9.30859-1.66016,18.22461-4.9541,26.69141
			c-3.29297,8.46875-8.1709,16.02148-14.6084,22.60742c-6.43848,6.60938-14.31055,11.85938-23.64844,15.74609
			c-9.30859,3.88672-19.98145,5.84375-32.0127,5.84375H356.20801z M356.20801,793.83252c8.4668,0,15.67285-1.9082,21.59082-5.71875
			c5.91895-3.8125,10.44922-8.99023,13.59375-15.50195c3.14648-6.51172,4.70508-13.94141,4.70508-22.23438
			c0-8.29688-1.60938-15.74805-4.82813-22.35938c-3.21777-6.60938-7.80176-11.81055-13.71777-15.62305
			c-5.94336-3.81445-13.0498-5.7207-21.34375-5.7207c-8.29492,0-15.4502,1.90625-21.4668,5.7207
			c-6.01563,3.8125-10.62305,9.01367-13.8418,15.62305c-3.2207,6.61133-4.82617,14.0625-4.82617,22.35938
			c0,8.29297,1.55664,15.72266,4.7002,22.23438c3.14746,6.51172,7.67871,11.68945,13.59473,15.50195
			c5.91992,3.81055,13.22266,5.71875,21.86523,5.71875H356.20801z"/>
		<path d="M446.92871,660.14893v-26.41797h52.61719v26.41797H446.92871z M464.21582,819.23682v-185.5293h35.33008v185.5293
			H464.21582z"/>
		<path d="M525.96973,709.44775v-25.92383h88.68848v25.92383H525.96973L525.96973,709.44775z M543.24805,819.23682V678.19971
			c0-15.74609,4.3584-27.43359,13.09863-35.06055c8.71582-7.625,21.64063-11.43945,38.75293-11.43945h17.28125v27.1875h-19.83301
			c-5.25,0-9.28516,1.4375-12.08301,4.30859c-2.79688,2.89844-4.18555,6.85742-4.18555,11.93359v144.10742H543.24805
			L543.24805,819.23682z"/>
		<path d="M645.65918,819.23682v-185.5293h32.28711l101.64258,167.97461h8.14648l-5.0752,4.05859V633.68018h18.54199v185.53125
			h-32.5332L667.00098,651.23682h-8.12012l5.0752-4.06055v172.06055H645.65918L645.65918,819.23682z"/>
		<path d="M910.96875,823.56885c-11.51563,0-21.5166-2.00391-29.98438-5.96875c-8.46973-3.98242-15.42676-9.30859-20.84766-16.01758
			c-5.4248-6.6875-9.45996-14.18555-12.08691-22.48438c-2.62305-8.29297-3.93555-16.85938-3.93555-25.67383v-3.56445
			c0-8.64453,1.3125-17.11133,3.93555-25.4082c2.62695-8.29297,6.6377-15.74609,12.08691-22.35742
			c5.4209-6.61133,12.22852-11.91016,20.45117-15.89648c8.21777-3.98633,17.8291-5.9668,28.84473-5.9668
			c14.06445,0,25.80078,3.14453,35.1875,9.41016c9.4082,6.26367,16.46289,14.28516,21.21484,24.01758
			c4.75586,9.75391,7.10938,20.20313,7.10938,31.39453v9.90625H852.73145v-14.73633H959.7207l-4.82813,7.38086
			c0-10.00391-1.73438-18.76758-5.19727-26.29492c-3.46875-7.52734-8.56738-13.4707-15.25293-17.7793
			s-15.03125-6.48633-25.03418-6.48633c-10.49707,0-19.23926,2.45117-26.1709,7.37891
			c-6.95898,4.92578-12.15723,11.4375-15.62598,19.56055c-3.46387,8.12305-5.19629,17.35742-5.19629,27.70703
			c0,10.35156,1.73242,19.4375,5.19629,27.83008c3.46875,8.39648,8.81641,15.0293,16.01953,19.95898
			c7.20605,4.92578,16.29297,7.375,27.31348,7.375c11.68555,0,21.16797-2.67188,28.47461-7.99414
			c7.2793-5.34961,11.76074-11.63867,13.46973-18.94336h17.77734c-1.68262,8.98828-5.24902,16.73633-10.6709,23.24805
			c-5.42383,6.51563-12.28125,11.56641-20.57617,15.13086c-8.29395,3.56836-17.77832,5.34961-28.47461,5.34961L910.96875,823.56885z
			"/>
		<path d="M992.80078,819.23682l49.81738-70.91406v5.07422l-46.77148-68.61133h20.84766l35.58203,52.86328h3.56543
			l33.79785-52.86328h19.5625l-43.97656,66.58203v-4.82617l52.3457,72.66992h-20.84863l-41.17578-57.16992h-3.29492
			l-39.88965,57.16992h-19.56152V819.23682z"/>
		<path d="M1126.48535,699.29541v-14.48438h90.96875v14.48438H1126.48535z M1196.11035,820.77197
			c-9.30859,0-17.35645-1.36133-24.1416-4.06055s-12.03418-7.32813-15.74902-13.8418
			c-3.7373-6.51367-5.59473-15.2793-5.59473-26.29492V642.39697h18.30078v136.97852c0,7.79492,2.10156,13.76172,6.36035,17.92578
			c4.23438,4.1582,10.25293,6.21289,18.05078,6.21289h24.14063v17.28125h-21.34375L1196.11035,820.77197z"/>
	</g>
</g>
</svg>
