<?xml version="1.0" encoding="utf-8"?>
<!-- Generator: Adobe Illustrator 16.0.0, SVG Export Plug-In . SVG Version: 6.00 Build 0)  -->
<!DOCTYPE svg PUBLIC "-//W3C//DTD SVG 1.1//EN" "http://www.w3.org/Graphics/SVG/1.1/DTD/svg11.dtd">
<svg version="1.1" id="Layer_1" xmlns="http://www.w3.org/2000/svg" xmlns:xlink="http://www.w3.org/1999/xlink" x="0px" y="0px"
	 width="1080px" height="1080px" viewBox="0 0 1080 1080" enable-background="new 0 0 1080 1080" xml:space="preserve">
<path fill="#FFFFFF" d="M978.2168,700.58594c-2.10352-5.54297-4.16211-11.12988-6.2168-16.72559l-5.95313-16.06445l-0.16602-0.44141
	c-12.03906-29.13184-38.08496-49.04004-67.91602-51.94727c-6.63086-0.7998-13.28906-1.52539-19.93359-2.25098l-18.29102-2.00684
	c-11.87305-1.18848-23.60547-0.11328-34.73633,2.95996c-0.10352-11.75488-2.39453-23.51855-7.01953-34.62207
	c-5.15039-12.5293-10.29492-25.06152-15.38867-37.48145l-0.26172-0.66406c-7.25586-16.38477-18.13281-30.10254-31.38672-40.25781
	c17.45508-5.83984,33.06055-16.21777,44.51855-30.08398c8.90039-10.42188,17.89258-20.84375,26.85449-31.09473
	c0.24023-0.24512,0.39746-0.41992,0.42773-0.48535c21.62695-26.12402,27.87305-58.74414,17.05371-89.68945l-0.1748-0.47656
	c-4.56445-11.58496-9.04102-23.22168-13.56445-35.05078c-11.37891-29.04395-38.81934-49.8916-71.59668-54.39844
	c-13.87988-1.99414-26.4873-3.67285-39.68066-5.29004c-18.44727-2.11523-37.00781,0.87012-53.69922,8.1709
	c0.92773-12.20117-0.64648-24.63379-4.9043-36.8125l-0.1748-0.48145c-4.56348-11.58887-9.04004-23.2207-13.56934-35.0498
	c-11.375-29.04492-38.81836-49.89258-71.58789-54.39453c-11.29492-1.64844-23.90234-3.33105-39.68359-5.29395
	c-10.85449-1.24219-21.74414-0.69141-32.2832,1.43359c0.52344-8.41113-0.29297-16.76953-2.61914-24.76855l-0.15723-0.46387
	c-3.08691-9.6084-6.07715-19.26953-9.0498-28.98242l-0.2832-0.86133c-9.49951-26.22461-33.28906-42.49121-63.63184-43.50977
	c-12.99609-0.40234-23.8374-0.625-34.35986-0.80469h-0.49365c-26.18115,0-52.47998,10.96387-76.05322,31.71094l-0.22314,0.22266
	C184.86963,165.61621,97.04639,332.2002,97.04639,510.50977c0,298.00879,242.43848,540.46484,540.43896,540.52539h0.08691
	c82.96289-0.0127,162.59375-18.34277,236.66406-54.48145c2.00195-0.97461,36.13086-25.09277,55.77148-49.93164
	c18.84961-23.1377,24.03516-48.06836,14.60059-70.19727c-1.97559-4.62012-3.94727-9.19336-5.9541-13.73047
	c-1.13184-2.67969-5.02734-11.6416-5.02734-11.6416c-3.12109-6.96777-7.37402-13.11914-12.54102-18.41699
	c7.85547-5.56055,14.99414-12.31445,21.14453-20.19238c2.0459-2.70996,18.02832-23.54395,22.01465-29.00488
	c0.24512-0.24902,0.41992-0.49316,0.55566-0.69922C982.88477,756.68945,987.65918,727.53613,978.2168,700.58594z
	 M903.08008,878.16016c1.9668,4.46777,3.92969,8.94043,5.85352,13.45117c4.45313,10.42188-2.31348,22.15918-8.70508,30.08887
	l-4.84766,5.45605c-5.17969,5.83984-10.36426,11.68457-15.73242,17.54297c-10.19434,11.31348-26.36523,19.125-44.30469,21.4248
	c-12.17578,1.20215-22.26465,2.04492-32.70801,2.72754c-10.72754,0.77344-24.97363-1.40332-32.69043-9.45605
	c-0.56348-0.99219-1.12305-1.98438-1.75684-2.95898l-1.26367-1.94141c-5.08398-7.64941-9.63965-14.54395-13.90918-21.49023
	l-0.22363-0.37988c-0.66016-1.02344-1.37695-2.00684-2.08496-2.99512c-3.97461-10.45215-0.14453-20.24414,3.93359-26.76172
	c0.90039-0.97461,1.79688-1.9541,2.6582-2.96875c7.74609-9.40234,15.48828-18.84473,23.23438-28.29199l0.31055-0.41113
	c0.67383-0.87402,1.28906-1.77441,1.93164-2.66211c10.5625-10.91113,24.52539-17.84375,38.95898-19.33887
	c2.33496,0.24414,4.67773,0.42773,7.05664,0.48926c13.47266,0.3584,24.63281,0.55469,34.88379,0.61621v0.10938l2.24707-0.00879
	c2.02344-0.00879,4.03027-0.0957,6.0332-0.23145c8.75977,1.32031,21.03516,5.20215,26.10156,16.4668L903.08008,878.16016z
	 M135.85645,510.50977c0-57.49414,9.85791-113.67188,28.43018-166.44922c2.32129,1.09277,26.27051,2.51758,35.71729,2.9248h0.85889
	c0.91797-0.00488,1.83398-0.06641,2.75195-0.10547c10.37109,2.81934,16.02783,11.87793,19.00293,19.4834
	c0.3125,1.64453,0.64453,3.28809,1.04053,4.91797l0.1001,0.35938c3.35107,12.65918,6.91162,25.1748,10.53125,36.96875
	c0.06787,0.3418,0.20117,0.76074,0.3125,1.03613c0.34521,0.9668,0.73633,1.88867,1.104,2.83789
	c3.63232,17.85254,1.11865,35.56152-7.33105,51.67969c-0.44385,0.61621-23.32422,38.35547-23.75488,39.21191
	c-5.97559,8.28809-14.39111,16.58594-24.51074,17.63477c-1.67676-0.41992-40.60693-5.78809-44.17188-4.10938
	C135.91113,514.76758,135.85645,512.64258,135.85645,510.50977z M425.69531,930.45703
	c-0.6123-0.9668-1.16309-1.92383-1.81445-2.89453l-0.74756-1.03125c-6.55713-9.31641-13.11426-18.63574-19.78516-28.28809
	c-0.86572-1.20703-1.82275-2.30371-2.71924-3.4668c-4.75586-8.56348-8.06982-19.97754-3.23926-32.11328
	c0.20117-0.28418,0.4375-0.52441,0.63379-0.8125c0.21875-0.2666,0.38916-0.5293,0.71729-1.0625
	c5.00977-8.18359,10.46533-16.99609,16.83008-27.125c0.76953-1.25488,1.46875-2.53516,2.15967-3.82031
	c7.19531-8.39844,18.65723-12.44141,34.0625-12.08301c1.34619,0.29297,2.67969,0.59473,4.04346,0.83887
	c0.24951,0.06543,0.6167,0.13184,0.73877,0.13184c13.09717,1.91895,26.20703,3.58887,38.88916,5.20117l1.04004,0.13184
	c2.51807,0.31934,5.08838,0.49805,7.67676,0.61133c14.81494,3.72949,28.40576,12.73926,37.05713,24.52441
	c0.87891,1.81836,1.82227,3.62012,2.8457,5.39844c5.66602,9.97168,11.68945,20.24023,19.02441,32.41895l0.54199,0.81348
	c0.49805,0.73438,1.03125,1.43359,1.54785,2.15039c3.66309,8.18359,6.82813,20.18359,0.91797,30.54395
	c-0.78711,0.89648-1.59082,1.78418-2.33496,2.71484c-7.34375,9.36328-13.2627,16.9873-18.63965,24.06934
	c-0.7041,0.92676-1.3291,1.875-1.9668,2.82422c-10.5791,10.45605-28.95215,9.9668-36.84277,9.19727h-0.09668
	c-9.26318-1.12793-19.40918-2.49121-34.94531-4.68652C452.74609,951.4834,436.40527,942.71387,425.69531,930.45703z
	 M752.41211,844.19434c-0.6123,0.68164-1.25,1.3457-1.8457,2.0459l-0.35352,0.41504
	c-7.17383,8.76074-14.39063,17.52051-21.6084,26.28516l-1.40332,1.72754c-0.16602,0.16113-0.31055,0.34473-0.57715,0.69043
	c-0.625,0.80859-1.18066,1.63477-1.77051,2.45703c-9.90625,10.13672-23.59277,16.16113-38.62695,17
	c-1.9668-0.22656-3.95117-0.41016-5.96191-0.54199l-12.84375-0.71191c-8.4541-0.46777-16.87402-0.93555-25.16211-1.48242
	c-2.65723-0.19629-5.29785-0.25293-7.93848-0.24902c-13.91016-2.49609-26.50879-10.3252-35.78516-22.15918
	c-0.32324-0.64258-0.62109-1.28906-0.96191-1.93164c-0.13086-0.31543-0.30566-0.63867-0.51563-0.97949
	c-6.03223-10.15039-12.43262-20.97461-18.55762-31.66309c-1.08789-1.89746-2.26758-3.75098-3.49219-5.56934
	c-4.7998-12.03906-3.75098-25.16602,2.83691-37.24023c0.66016-0.78711,1.3252-1.56543,1.95801-2.37793l0.40723-0.55078
	c7.46582-10.33887,14.98535-20.625,22.54785-30.87207c1.24219-1.6875,2.41309-3.42285,3.52344-5.19336
	c12.19238-12.92676,28.53711-16.32324,40.62012-16.75586c1.91504,0.33691,3.84277,0.63379,5.78809,0.86133
	c0.46289,0.14844,0.84766,0.13574,0.93945,0.14453c7.99609,0.69434,15.96875,1.46387,23.93359,2.23828l17.04492,1.59961
	c0.62109,0.14844,1.22852,0.15332,1.52539,0.14844c1.57422,0.08789,3.10352,0.08789,4.63477,0.08789
	c11.47852,2.61426,26.875,8.70801,36.16895,22.80566c0.7959,2.10742,1.66113,4.18848,2.64063,6.2207
	c5.24121,11.15625,10.52637,22.26855,15.90332,33.33301l0.30664,0.55469c0.59375,1.13281,1.24023,2.2168,1.87891,3.30957
	C761.66602,820.33398,759.81641,832.97656,752.41211,844.19434z M261.60693,813.89063
	c-0.33643-0.83008-0.64941-1.67383-1.11035-2.47461c-6.5791-11.44434-12.28809-21.58203-18.51318-32.86426l-0.25391-0.40625
	c-0.6709-1.15039-1.35693-2.25586-2.04102-3.37109c-4.65381-10.33398-9.44727-26.03223-4.76758-40.41895
	c0.60547-1.10547,1.2002-2.22461,1.75781-3.37891c4.3623-9.35059,8.89551-18.50391,13.93604-28.62891
	c0.65137-1.28516,1.20459-2.5791,1.78369-3.86816c5.36572-7.89551,14.57861-12.63379,24.5459-12.65625
	c1.83594,0.47266,3.6958,0.89258,5.58252,1.24609c11.91016,2.05859,23.82227,4.03027,35.76514,6.01074
	c0.33447,0.06543,0.63379,0.09668,0.62305,0.0918c1.58887,0.20996,3.17139,0.34961,4.76025,0.47266
	c14.41943,4.27539,27.01807,14.21582,35.73047,28.22168c0.84619,2.02832,1.75098,4.04395,2.74561,6.0332l6.13965,12.2832
	c4.02393,8.06152,8.15283,16.32813,12.55273,24.7168l0.26221,0.4502c0.59473,1.03223,1.22412,2.01563,1.84473,3.02051
	c4.2666,10.61035,8.21826,26.64844,1.66992,40.91699c-0.72559,1.01465-1.4165,2.0293-2.05908,3.03418l-0.50244,0.53809v0.2793
	c-5.61768,8.91406-11.14746,17.87109-16.54639,26.73633c-0.21631,0.30566-0.40869,0.6377-0.74512,1.25
	c-0.13135,0.24902-0.23828,0.50684-0.36523,0.76074c-6.32764,7.6416-15.10107,11.1123-26.22217,10.25977
	c-1.29639-0.3584-2.55518-0.7998-3.86865-1.11426l-0.72168-0.13574c-12.1001-2.56152-22.60059-4.87402-32.09521-7.06445
	c-1.98047-0.4541-3.94971-0.80469-5.9126-1.10156C282.43066,837.81152,270.18799,827.40723,261.60693,813.89063z
	 M239.62939,520.92188l0.25977-0.41016c6.07227-10.25586,12.54834-20.91797,19.76172-32.52441l0.29688-0.47168
	c0.60791-1.03223,1.16309-2.08105,1.73779-3.12207c6.42188-8.13086,17.35254-18.25488,32.41455-19.19043
	c2.07422,0.41504,4.17285,0.76953,6.3125,1.01855c8.68164,1.02734,17.36377,2.10254,26.04541,3.17773l10.13721,1.24219
	c0.68896,0.10449,1.52393,0.18359,2.10059,0.20117c1.24609,0.06934,2.45459,0.06055,3.66992,0.06934
	c14.18115,3.67188,25.94727,13.5957,33.31738,28.08301c0.49414,1.62598,0.99463,3.25195,1.56494,4.87402l0.17725,0.47656
	c5.19336,13.16699,10.43457,26.29004,15.82031,39.61426c0.80859,1.93262,1.6875,3.8252,2.61426,5.69141
	c4.81299,16.74316,2.76709,34.1377-5.79248,49.90527c-0.3584,0.4541-0.73438,0.88281-1.08398,1.34668
	c-0.19678,0.24902-0.39355,0.49805-0.58594,0.78223c-6.60059,9.72656-14.38867,21.27148-22.04541,33.03516
	c-0.12891,0.1748-0.24463,0.36328-0.49609,0.78711c-0.51123,0.85645-0.96387,1.74023-1.44678,2.60938
	c-7.15625,8.66016-18.39111,17.20605-34.7666,16.95313c-1.34424-0.31934-2.68848-0.63867-4.05029-0.89648l-0.74072-0.16602
	c-11.81201-1.92383-23.66943-3.93848-35.22559-5.90137c-2.04346-0.38086-4.08936-0.64746-6.12891-0.84375
	c-15.03369-5.12305-24.83887-17.72656-30.89551-29.20117c-0.4043-1.14551-0.81299-2.28711-1.22852-3.37988
	c-0.10889-0.44531-0.29492-0.85254-0.33838-0.93066c-3.62402-8.50684-7.08203-17.40723-10.42627-26.01465l-4.19434-10.83691
	l-0.19043-0.51172c-0.55273-1.3291-1.14063-2.60059-1.72021-3.88672c-4.89355-16.97852-3.52979-34.0625,3.9541-49.86523
	C238.84668,522.05859,239.24463,521.50781,239.62939,520.92188z M574.42578,730.68848
	c-1.11426,1.33301-2.20703,2.68848-3.24805,4.0957c-7.6582,10.35156-15.27344,20.74316-22.77051,31.13867
	c-0.10938,0.14844-0.20605,0.29199-0.43262,0.64648c-0.50781,0.75586-0.95313,1.53418-1.43359,2.30371
	c-9.70898,10.78418-23.2832,16.91309-37.88379,17.04004c-2.3252-0.45898-4.66406-0.86523-7.02051-1.16309
	c-14.5791-1.83105-26.82324-3.41797-39.18164-5.22363c-0.37598-0.06152-0.82617-0.12695-1.05371-0.11328
	c-1.02734-0.0918-1.98438-0.10938-2.98975-0.1748c-17.66553-4.19727-31.28711-14.00195-41.40674-29.76563
	c-0.32813-0.72559-0.62109-1.44727-0.96191-2.17285c-0.13135-0.31934-0.271-0.64258-0.40234-0.85645
	c-4.75586-9.01855-9.40723-18.32129-13.71777-27.03809l-4.57227-9.14063c-0.83496-1.64355-1.71387-3.24805-2.61426-4.83496
	c-5.93213-15.15137-5.01855-31.6582,2.54395-46.47754c0.3457-0.46387,0.7041-0.90527,1.04053-1.37695
	c0.37598-0.37598,0.6123-0.76953,0.74316-0.98828c6.12012-9.38574,13.02734-19.71484,21.62158-32.3623
	c0.24902-0.30566,0.43701-0.61621,0.61182-0.9043c0.42871-0.69531,0.80469-1.41211,1.21533-2.11133
	c10.47412-12.22754,24.12207-19.07715,38.71387-19.4668c2.54443,0.54688,5.10596,1.01465,7.69385,1.32031l19.40967,2.60059
	c7.33936,0.99707,14.67041,1.98926,21.92773,2.93848c0.38867,0.06543,0.80371,0.13086,0.97852,0.10938
	c1.56445,0.13086,3.10352,0.23145,4.64648,0.29688l-0.15234,0.16211h1.05273c16.44141,4.49805,29.5918,14.00586,37.99316,27.72754
	c0.83887,2.31738,1.74902,4.62109,2.78027,6.89844c5.77051,12.76953,11.59766,25.5293,17.45996,38.1543
	c1.04492,2.27734,2.21191,4.48145,3.43164,6.65332C582.90723,702.88965,581.4082,718.36035,574.42578,730.68848z
	 M386.71436,254.19141h0.01758c11.45801,2.86719,21.16699,10.6748,26.53076,21.41113
	c0.46338,1.89746,15.13867,45.41113,15.64111,46.5918c3.52344,16.27539,0.45459,33.13184-8.68164,47.64941
	c-1.25928,1.44629-31.54053,41.31934-32.30518,42.5127c-10.93994,12.43652-24.94385,19.01172-41.75684,19.63184
	c-1.05322-0.19238-45.36719-5.58691-47.66455-5.65234c-13.75684-4.23535-21.45947-16.03906-25.45508-25.10059
	c-0.24268-1.01465-0.46143-2.02832-0.72803-3.03809c-0.05664-0.3457-0.13086-0.75195-0.24902-1.02734
	c-3.79883-12.19238-7.2959-24.94824-10.2793-35.96875c-0.39795-1.42969-0.85498-2.80273-1.30713-4.18359
	c-2.4458-15.91211,1.19775-32.79492,10.11523-46.89258c0.99902-1.22852,1.99561-2.46191,2.96191-3.74707
	c6.65332-8.92676,14.1416-18.74512,24.29248-31.85059c0.78467-1.03125,1.51904-2.07227,2.26855-3.1123
	c11.1582-12.25293,24.54395-19.6416,37.96436-20.86523C340.06836,250.85156,384.47217,254.19141,386.71436,254.19141z
	 M140.57813,554.47754c9.27344,1.61328,18.59375,3.18262,28.00977,4.70801c1.67676,0.2666,3.40771,0.36719,5.12988,0.49414
	c11.60449,4.48535,19.56494,16.64258,24.24658,26.27246c0.49658,1.57813,1.00781,3.15234,1.57373,4.72168l2.94434,7.66309
	c4.23389,10.95508,8.07861,20.82617,12.1333,30.38672c0.10889,0.44531,0.29492,0.80859,0.36475,0.93945
	c0.60986,1.32422,1.25928,2.60059,1.89746,3.88574c4.37549,13.47754,7.14307,30.81934,1.04688,46.72266
	c-0.7998,1.36426-1.58057,2.74512-2.28857,4.17969c-4.74756,9.54297-9.79004,19.74609-14.48926,29.74316
	c-0.51367,1.12402-0.97021,2.26465-1.42725,3.41016c-2.81982,4.33594-7.51025,8.93945-14.70996,8.78223
	c-0.10742-0.03516-0.21436-0.06543-0.31934-0.10059c-25.39355-53.07422-41.70166-111.28027-46.9541-172.59961
	C138.66113,553.99707,139.58789,554.30762,140.57813,554.47754z M325.66895,889.59668l0.62305,0.11719
	c1.4248,0.25391,2.83936,0.42871,4.25342,0.6123c14.81055,4.66016,27.82861,13.73145,38.104,26.53027
	c0.82178,1.36035,1.66113,2.71973,2.56592,4.06152l2.37158,3.44434c4.90479,7.16504,9.98438,14.33008,14.93311,21.32031
	l0.25342,0.3584c-30.38818-17.4248-58.77002-37.95313-84.75439-61.12207
	C311.5752,886.60156,318.84961,888.17578,325.66895,889.59668z M535.64258,996.12109
	c0.57227,2.02832,1.25391,4.05176,2.05859,6.06738c-5.88867-1.19336-11.73242-2.51367-17.54297-3.91309
	C525.54492,997.95703,530.71582,997.24414,535.64258,996.12109z M777.6875,644.36426
	c-0.99219,1.16309-1.98438,2.32129-2.93359,3.53711l-3.08984,4.13086c-3.19531,4.18359-6.40918,8.38379-9.5918,12.58105
	l-11.61914,15.19922c-1.20703,1.53418-2.34375,3.1123-3.43555,4.7168c-12.81738,13.6084-29.18457,17.6875-42.66602,18.19434
	c-1.42969-0.26172-2.84961-0.53711-4.30176-0.75195c-0.37598-0.05273-0.69922-0.0957-0.8916-0.08691l-19.34766-1.87988
	c-7.43164-0.73047-14.88086-1.45605-22.49609-2.11621l-0.36328,0.00488c-2.0498-0.12305-4.07813-0.1748-6.09766-0.19727
	c-15.48438-3.54492-28.9043-12.76465-37.05273-25.51172c-0.84863-2.29102-1.7666-4.56348-2.80664-6.79785
	c-5.81445-12.48438-11.49707-25.00879-17.17188-37.52051l-0.1875-0.42383c-0.97461-2.13379-2.04102-4.20996-3.15234-6.25098
	c-4.69434-15.49316-2.12891-32.41016,7.13477-47.75879c0.46289-0.53809,0.93945-1.05371,1.39453-1.60449l0.50684-0.65527
	c8.4541-11.1875,16.95215-22.36914,25.63965-33.60449l0.31445-0.42383c0.58984-0.83008,1.12695-1.68262,1.69141-2.52246
	c13.66992-14.83691,32.14355-21.86133,52.48828-19.61426l23.58398,3.33105c6.01953,0.84375,12.05273,1.69141,18.14258,2.57422
	c19.5752,2.71094,36.53223,16.13086,45.32813,35.8291c5.09668,12.53711,10.25,25.0752,15.44824,37.62109
	C788.83496,610.39746,786.95898,629.4834,777.6875,644.36426z M689.00781,461.64453
	c-19.33105-2.72754-34.42188-14.54395-41.46875-32.44043l-0.10449-0.31055c-4.79102-13.99707-8.63379-25.45117-12.07324-35.90332
	c-5.38672-16.83887-0.35059-36.47949,13.13086-51.25977c9.99414-10.98145,19.17773-20.78223,27.40039-29.23242
	c13.94141-14.54785,34.24609-21.875,54.28516-19.5625c13.32422,1.6748,26.03711,3.37109,38.87109,5.18945
	c18.6582,2.5791,34.6709,14.34668,40.78711,29.96191c4.43164,11.6416,8.95703,23.28711,13.44629,34.79688
	c6.06348,17.70508,2.38672,35.99121-10.30762,51.43555c-9.09375,10.42969-18.09766,20.86914-27.26074,31.60547
	c-12.79102,15.50977-34.63184,23.8252-55.5791,21.18457c-7.94336-1.08398-15.85938-2.125-23.79004-3.16504L689.00781,461.64453z
	 M629.39844,290.49609c-9.09375,10.3916-18.09863,20.87402-27.26172,31.61035
	c-11.50586,13.9541-30.32813,22.05469-49.24805,21.62207c-1.72754-0.40723-3.4541-0.80469-5.2207-1.13281
	c-0.27051-0.05664-0.6377-0.13477-0.75977-0.11328c-11.23438-1.52148-22.47852-2.99902-33.75684-4.47656l-7.87305-1.03613
	c-2.19043-0.24902-4.37598-0.41992-6.56152-0.52051c-14.71924-3.90723-26.31641-13.53809-32.95264-27.2168
	c-0.30176-1.11426-0.57275-2.22949-0.90918-3.33496c-0.04395-0.1748-0.10498-0.3457-0.23584-0.72559
	c-4.96631-14.58789-8.72559-25.77441-12.2666-36.47559c-0.56836-1.69629-1.21094-3.35742-1.88428-4.99219
	c-2.50049-13.66992,1.32471-28.52832,10.53125-40.9043c1.39893-1.38184,2.76709-2.79785,4.09131-4.25391
	c8.66016-9.45996,17.90576-19.50977,27.40088-29.23145c1.47754-1.53516,2.89355-3.09961,4.25781-4.7002
	c13.62549-11.75,31.81494-17.50293,49.85205-15.44824c13.86719,1.72168,26.5791,3.41797,38.87598,5.18848
	c18.64453,2.53125,34.65723,14.28223,40.78223,29.91406c4.43164,11.64551,8.95703,23.28711,13.44629,34.79785
	C645.76465,256.77051,642.08789,275.05664,629.39844,290.49609z M464.33936,161.80469
	c-9.89746,10.21094-19.75928,20.89551-28.11328,29.99707c-1.28955,1.41602-2.52246,2.87207-3.72021,4.34473
	c-11.90771,11.26953-27.2998,18.25586-42.37695,19.1123c-2.19482-0.36719-4.40674-0.67285-6.64502-0.85645l-9.10107-0.7002
	c-9.07324-0.70801-18.10693-1.41602-27.33496-2.03711c-1.96289-0.11328-3.92334-0.14355-5.88184-0.11719
	c-8.14648-1.9541-16.02832-6.9209-19.6499-15.21289c-0.25146-1.71875-0.55957-3.42285-0.9248-5.11035
	c-2.09375-9.69629-4.07617-19.71973-5.89502-29.78711c-0.21387-1.17188-0.55518-2.2998-0.97021-3.39746
	c-0.74561-15.24707,9.33545-29.55078,18.35156-39.16406l0.35596-0.40625c10.8457-11.04199,18.29248-18.34277,25.58203-25.08789
	c11.4165-9.98047,29.36768-21.875,50.32471-21.875c10.15039,0.17871,20.79541,0.40234,33.54248,0.80469
	c6.57031,0.20898,22.47803,2.33789,28.14795,17.44141c2.91162,9.54297,5.8667,19.08594,8.896,28.56836
	c4.10498,14.29004-2.11572,28.93066-10.36475,39.34766C467.11963,159.00684,465.70752,160.37891,464.33936,161.80469z
	 M275.87109,168.59766c1.8667,10.22949,3.91895,20.59863,6.09375,30.79688c0.39551,1.94531,0.89209,3.84277,1.45801,5.71387
	c0.86768,12.77344-3.95166,27.6582-13.36572,41.52051c-0.93994,1.06641-1.88623,2.12012-2.80029,3.22559l-0.35596,0.45898
	c-9.5166,12.30566-17.11426,22.26465-24.64648,32.30957c-1.25928,1.69629-2.45703,3.43164-3.60889,5.19336
	c-6.61621,7.55469-18.17432,17.94141-32.8252,19.97852c-0.90967-0.12305-1.80762-0.27539-2.73242-0.3584
	c-0.43066-0.06152-0.78223-0.06152-1.06641-0.06641c-7.58887-0.31836-15.18262-0.59375-22.77344-0.86035
	c23.40479-52.55859,55.78662-100.95605,95.94971-142.91797C275.36621,165.2666,275.58691,166.93164,275.87109,168.59766z
	 M586.46973,1005.14355c-2.8584-3.21777-5.62598-6.43066-8.30176-9.53027c-6.0625-8.05664-7.3916-15.2168-4.06934-21.77832
	c0.76074-0.8916,1.60059-1.71387,2.31738-2.64941c5.98828-7.86816,12.11719-15.73242,18.24219-23.51367
	c0.87305-1.11523,1.68262-2.26074,2.46875-3.41406c9.29492-9.19336,22.59668-12.98828,34.52734-13.51758
	c2.50391,0.33301,5.02148,0.59961,7.56641,0.72656c9.14063,0.58105,18.27734,1.11914,27.41406,1.6084l11.40039,0.62891
	c1.43359,0.0918,2.86719,0.0918,4.30078,0.0918l1.88086-0.07422c9.69141,1.45215,23.99902,5.44727,33.16992,16.30176
	c0.5332,1.04004,1.0498,2.08496,1.64453,3.1123l0.30566,0.50684c4.72168,7.60645,9.64355,15.03418,14.40918,22.2207l1.42383,2.1377
	c0.7002,1.06641,1.45215,2.10254,2.2207,3.12109c2.23047,5.86621,0.54297,11.91211-5.20605,18.37793
	c-1.1709,1.32031-2.0498,2.78906-2.80176,4.30176c-30.02344,5.53809-60.67578,8.375-91.85352,8.375
	c-16.20996,0-32.23633-0.80371-48.06055-2.3125C588.68164,1008.18164,587.73828,1006.57324,586.46973,1005.14355z
	 M911.51172,788.67578c-9.80469,12.50293-24.1875,20.59473-39.34766,22.41699c-1.74805-0.15723-3.51465-0.28418-5.31055-0.35352
	h-0.57324c-11.88574-0.04883-23.66699-0.25391-36.02051-0.625c-2.39648-0.07031-4.79199-0.00879-7.18359,0.10449
	c-12.72461-2.05859-23.43945-9.0625-30.49902-19.86426c-0.37598-0.92676-0.72168-1.85742-1.12793-2.77539
	c-0.10547-0.41113-0.27148-0.74316-0.38477-0.96191c-4.75586-9.80078-9.41211-19.63672-14.02344-29.38086l-1.62207-3.43164
	c-0.94824-2.05469-1.99805-4.04395-3.09961-6.00195c-3.83789-12.97949-1.45996-28.30957,6.22559-40.38379
	c0.93066-1.08887,1.85352-2.18555,2.74414-3.32227c2.45313-3.16504,4.87109-6.34375,7.29297-9.52148l4.66406-6.11133
	c3.08203-4.00879,6.16406-8.04395,9.2627-12.10059l3.27832-4.28809c0.93555-1.23242,1.80078-2.5,2.67188-3.76855
	c12.04688-13.26758,29.73047-20.41895,47.22461-18.63965l19.68555,2.17676c6.06641,0.66504,12.19141,1.33789,18.47754,2.08105
	c15.88184,1.56543,29.36816,12.01758,36.03809,27.86816l11.85156,31.96875c6.55273,18.67969-1.08008,35.64941-8.59375,46.53906
	c-4.64746,6.25586-9.38574,12.42383-14.12012,18.5918L911.51172,788.67578z M963.86914,668.35547c0-0.00488,0-0.00488,0-0.00488l0,0
	V668.35547z"/>
</svg>
