<?xml version="1.0" encoding="utf-8"?>
<!-- Generator: Adobe Illustrator 16.0.0, SVG Export Plug-In . SVG Version: 6.00 Build 0)  -->
<!DOCTYPE svg PUBLIC "-//W3C//DTD SVG 1.1//EN" "http://www.w3.org/Graphics/SVG/1.1/DTD/svg11.dtd">
<svg version="1.1" id="Layer_1" xmlns="http://www.w3.org/2000/svg" xmlns:xlink="http://www.w3.org/1999/xlink" x="0px" y="0px"
	 width="1920px" height="635.4834px" viewBox="0 0 1920 635.4834" enable-background="new 0 0 1920 635.4834" xml:space="preserve">
<g>
	<path fill="#053E3F" d="M540.47656,412.47266c-1.25732-3.31836-2.48926-6.66309-3.72168-10.01367l-3.56055-9.61426
		l-0.10107-0.26465c-7.20703-17.43848-22.79639-29.35645-40.6543-31.0957c-3.96924-0.47754-7.95313-0.91309-11.93115-1.34766
		l-10.95068-1.2002c-7.10547-0.71191-14.12939-0.06836-20.79004,1.77051c-0.06445-7.03711-1.43652-14.07715-4.20557-20.72363
		c-3.08154-7.5-6.16064-15.00195-9.2085-22.43652l-0.15723-0.39746c-4.34619-9.80811-10.85352-18.02002-18.78955-24.09668
		c10.44824-3.49756,19.79053-9.71094,26.64941-18.00928c5.32959-6.23926,10.71045-12.47949,16.07471-18.61328
		c0.14404-0.14746,0.2373-0.25146,0.25635-0.29199c12.94678-15.63574,16.68457-35.16357,10.20947-53.68701l-0.10645-0.28564
		c-2.73193-6.93506-5.41016-13.89893-8.11914-20.979c-6.8125-17.38965-23.23779-29.8667-42.85742-32.56348
		c-8.31006-1.19434-15.854-2.20068-23.75391-3.16602c-11.04053-1.2666-22.15088,0.51904-32.14209,4.88916
		c0.55371-7.30225-0.3877-14.74561-2.93555-22.03467l-0.10693-0.28906c-2.73242-6.9375-5.41064-13.89795-8.12012-20.97998
		c-6.81104-17.3877-23.23682-29.86572-42.85449-32.56152c-6.76221-0.98779-14.30518-1.99463-23.75537-3.16797
		c-6.49756-0.74414-13.01563-0.4126-19.32275,0.85742c0.31201-5.03516-0.17578-10.03955-1.56885-14.8252l-0.09229-0.27734
		c-1.84717-5.75391-3.63916-11.53662-5.41602-17.3501l-0.17236-0.51611c-5.68701-15.69824-19.92432-25.43457-38.08887-26.04443
		c-7.77832-0.24072-14.26807-0.37354-20.56836-0.48145h-0.29395c-15.67236,0-31.41504,6.56494-45.52588,18.9834l-0.13281,0.13232
		C65.58203,92.23975,13.01221,191.9585,13.01221,298.69238c0,178.3877,145.12305,323.52051,323.50391,323.55664h0.05371
		c49.66162-0.00781,97.32568-10.97949,141.66455-32.6123c1.19727-0.58301,21.62793-15.01953,33.38379-29.88867
		c11.28613-13.85059,14.38965-28.77344,8.7417-42.01953c-1.18164-2.76563-2.36279-5.50391-3.56299-8.21973
		c-0.67871-1.60352-3.01172-6.96875-3.01172-6.96875c-1.86768-4.16992-4.41309-7.85156-7.50586-11.02441
		c4.70117-3.32715,8.97559-7.37012,12.65674-12.08594c1.22607-1.62207,10.79346-14.09277,13.17822-17.3623
		c0.14697-0.14746,0.25195-0.2959,0.33203-0.41797C543.27246,446.05469,546.12842,428.60449,540.47656,412.47266z
		 M495.50049,518.7666c1.17627,2.67578,2.35254,5.35254,3.50391,8.05371c2.6665,6.2373-1.38428,13.2627-5.20801,18.01172
		l-2.9043,3.26465c-3.10107,3.49609-6.20215,6.99414-9.41748,10.5c-6.10107,6.77246-15.78174,11.44922-26.52051,12.82422
		c-7.28857,0.7207-13.32568,1.22656-19.57813,1.63477c-6.42188,0.46191-14.9502-0.8418-19.56885-5.66113
		c-0.33887-0.59473-0.67383-1.18652-1.05127-1.77051l-0.75732-1.16211c-3.04297-4.58008-5.76953-8.70703-8.32568-12.86426
		l-0.13379-0.22656c-0.39697-0.61426-0.82227-1.20215-1.24902-1.79297c-2.37793-6.25879-0.08594-12.11816,2.35596-16.02051
		c0.53906-0.58301,1.07568-1.16992,1.59033-1.77637c4.63623-5.62988,9.271-11.28223,13.9082-16.93652l0.18506-0.24609
		c0.40576-0.52344,0.77344-1.06152,1.15527-1.59375c6.32666-6.53125,14.68115-10.68066,23.32471-11.57617
		c1.39404,0.14648,2.79834,0.25586,4.22168,0.29297c8.06494,0.21582,14.74512,0.33203,20.88135,0.37012v0.06348l1.34717-0.00391
		c1.21045-0.00586,2.4126-0.05664,3.61133-0.13867c5.24268,0.79004,12.58936,3.11426,15.62207,9.85742L495.50049,518.7666z
		 M36.24414,298.69238c0-34.41504,5.90039-68.04346,17.01758-99.63574c1.38916,0.65576,15.72559,1.50977,21.38086,1.75098h0.51367
		c0.5498-0.00195,1.09766-0.03906,1.64648-0.06299c6.20898,1.68799,9.59521,7.10938,11.37695,11.66406
		c0.18555,0.98486,0.38525,1.96826,0.62207,2.94287l0.05957,0.21484c2.00586,7.57715,4.1377,15.06836,6.30371,22.12891
		c0.04053,0.20557,0.12012,0.45703,0.1875,0.62109c0.20752,0.57813,0.44141,1.13037,0.66064,1.69824
		c2.17432,10.68799,0.66797,21.28711-4.38818,30.93359c-0.26563,0.37061-13.96338,22.9624-14.2207,23.47412
		c-3.57617,4.95996-8.61279,9.9292-14.67041,10.55615c-1.00537-0.25244-24.30762-3.46484-26.44141-2.45947
		C36.27734,301.24316,36.24414,299.9707,36.24414,298.69238z M209.73877,550.07227c-0.36523-0.57813-0.69434-1.15137-1.08447-1.7334
		l-0.44629-0.61621c-3.92529-5.57617-7.85205-11.15527-11.84473-16.93359c-0.51953-0.72266-1.09131-1.37891-1.62891-2.07617
		c-2.84375-5.12598-4.83008-11.95703-1.9375-19.22168c0.12061-0.16992,0.26172-0.31445,0.37939-0.48633
		c0.13184-0.16016,0.23291-0.31738,0.42773-0.63672c2.99854-4.89844,6.26611-10.17383,10.07617-16.23633
		c0.45898-0.75098,0.88037-1.51855,1.29346-2.28906c4.30664-5.02539,11.16602-7.44629,20.38965-7.22949
		c0.80371,0.17285,1.60352,0.35352,2.41992,0.50098c0.14697,0.03906,0.36963,0.07813,0.44287,0.07813
		c7.83691,1.14941,15.68652,2.14844,23.27637,3.11426l0.62549,0.0791c1.50537,0.19043,3.04443,0.29688,4.59326,0.36621
		c8.86865,2.23047,17.00391,7.62402,22.18262,14.67871c0.52539,1.09082,1.09082,2.16797,1.70313,3.23242
		c3.39063,5.96973,6.99707,12.11621,11.38721,19.40625l0.32568,0.48633c0.29834,0.43848,0.61963,0.85742,0.92578,1.28809
		c2.19531,4.89746,4.08691,12.08008,0.55029,18.28125c-0.47266,0.53711-0.95117,1.07031-1.39648,1.62695
		c-4.39844,5.60449-7.94092,10.16797-11.16016,14.40723c-0.41992,0.55566-0.79443,1.12402-1.17676,1.69043
		c-6.3335,6.26074-17.33105,5.96582-22.0542,5.50586h-0.05518c-5.54639-0.67383-11.61914-1.49023-20.91797-2.80469
		C225.93164,562.65723,216.15234,557.40723,209.73877,550.07227z M405.31006,498.43555
		c-0.3667,0.4082-0.74609,0.80664-1.10303,1.22461l-0.21191,0.24805c-4.29492,5.24512-8.61426,10.48828-12.93408,15.73535
		l-0.84082,1.0332c-0.09912,0.09668-0.18652,0.20703-0.34521,0.41406c-0.37256,0.48242-0.70654,0.97949-1.05811,1.4707
		c-5.92969,6.06738-14.12402,9.67285-23.12402,10.17578c-1.17676-0.13672-2.36621-0.24609-3.56787-0.3252l-7.68701-0.42578
		c-5.06445-0.28027-10.10156-0.56055-15.06299-0.88672c-1.5918-0.11816-3.17285-0.15234-4.75098-0.15039
		c-8.32764-1.49316-15.86963-6.17969-21.4209-13.26367c-0.19629-0.38379-0.37207-0.77246-0.57813-1.15625
		c-0.07617-0.1875-0.18359-0.38379-0.30713-0.58691c-3.61328-6.0752-7.44141-12.55469-11.1084-18.9541
		c-0.65283-1.13574-1.35791-2.24512-2.08984-3.33301c-2.87451-7.20508-2.24756-15.0625,1.69678-22.29199
		c0.39404-0.46973,0.79346-0.93555,1.17236-1.42285l0.24268-0.3291c4.47119-6.18945,8.97119-12.34766,13.49609-18.48047
		c0.74512-1.00879,1.44531-2.0498,2.10938-3.10938c7.2998-7.73633,17.08447-9.77051,24.31641-10.02832
		c1.146,0.20117,2.2998,0.37891,3.46387,0.51465c0.27783,0.08887,0.50879,0.08008,0.56348,0.08691
		c4.78711,0.41504,9.55713,0.87695,14.32568,1.33789l10.20361,0.95898c0.37158,0.08887,0.73584,0.09082,0.9126,0.08887
		c0.94434,0.05273,1.85938,0.05273,2.77637,0.05273c6.87061,1.56445,16.08594,5.21191,21.64746,13.65234
		c0.47803,1.26074,0.99463,2.50586,1.58203,3.72266c3.13721,6.67871,6.30273,13.33008,9.52197,19.95313l0.17969,0.33203
		c0.35693,0.67676,0.74609,1.32715,1.12793,1.98047C410.85156,484.15137,409.74365,491.7207,405.31006,498.43555z
		 M111.51758,480.2959c-0.20166-0.49707-0.38916-1.00195-0.66455-1.48145c-3.93896-6.84863-7.35596-12.91797-11.08203-19.67285
		l-0.15137-0.24316c-0.40234-0.68848-0.81299-1.35156-1.22266-2.0166c-2.78516-6.1875-5.6543-15.58301-2.85303-24.19434
		c0.36133-0.66309,0.71777-1.33398,1.05127-2.02344c2.6123-5.5957,5.3252-11.07715,8.34229-17.13672
		c0.39063-0.77051,0.72119-1.54395,1.06738-2.31641c3.2124-4.72559,8.72705-7.56348,14.69336-7.5752
		c1.09961,0.28223,2.2124,0.5332,3.34229,0.74512c7.12842,1.23242,14.25977,2.41211,21.40869,3.59863
		c0.2002,0.03906,0.37939,0.05859,0.37207,0.05469c0.95166,0.125,1.89893,0.20898,2.8501,0.2832
		c8.63184,2.55762,16.17285,8.50879,21.38867,16.89355c0.50635,1.21289,1.04736,2.41992,1.64258,3.61035l3.67529,7.35254
		c2.40869,4.8252,4.88037,9.77539,7.51416,14.7959l0.15576,0.26953c0.35547,0.61816,0.73438,1.20605,1.10352,1.80762
		c2.55469,6.35254,4.9209,15.95215,1.00244,24.49414c-0.43359,0.60645-0.84863,1.21387-1.2334,1.81641l-0.30029,0.32031v0.16797
		c-3.36279,5.33594-6.67285,10.69824-9.9043,16.00391c-0.13037,0.18457-0.24512,0.38281-0.44629,0.74902
		c-0.0791,0.14941-0.14307,0.30371-0.21875,0.4541c-3.7876,4.57422-9.04102,6.65332-15.69629,6.14258
		c-0.77637-0.21582-1.52979-0.47949-2.31641-0.66797l-0.43164-0.08203c-7.24316-1.5332-13.52881-2.91699-19.2124-4.22754
		c-1.18506-0.27246-2.36572-0.48145-3.53906-0.65918C123.98193,494.61426,116.65381,488.3877,111.51758,480.2959z
		 M98.36182,304.92529l0.15576-0.24561c3.63428-6.14014,7.51074-12.521,11.8291-19.46973l0.17822-0.28125
		c0.36328-0.61768,0.6958-1.24414,1.03955-1.86719c3.84424-4.86816,10.3877-10.92969,19.40332-11.48975
		c1.2417,0.24951,2.49854,0.46143,3.77832,0.61035c5.19678,0.6167,10.39404,1.25732,15.59082,1.90137l6.06836,0.74463
		c0.4126,0.0625,0.9126,0.11133,1.25732,0.12109c0.74512,0.03955,1.46973,0.0376,2.19727,0.04053
		c8.48828,2.19775,15.52979,8.13721,19.94385,16.81152c0.29395,0.97363,0.59473,1.94531,0.93604,2.9165l0.10596,0.28516
		c3.10889,7.88135,6.24658,15.73633,9.47021,23.71289c0.48535,1.1582,1.01025,2.28906,1.56445,3.40723
		c2.88135,10.02148,1.6582,20.43555-3.4668,29.87305c-0.21387,0.27246-0.43799,0.52734-0.64893,0.80664
		c-0.11816,0.14844-0.23584,0.29688-0.3501,0.46777c-3.9502,5.82324-8.61279,12.7334-13.19678,19.77539
		c-0.07764,0.10352-0.14697,0.21777-0.29688,0.4707c-0.30664,0.51172-0.57715,1.04297-0.86621,1.5625
		c-4.28418,5.18262-11.00977,10.29883-20.81104,10.14648c-0.80518-0.19141-1.60889-0.38184-2.42432-0.53613l-0.44336-0.09961
		c-7.0708-1.15039-14.16895-2.35742-21.08594-3.53125c-1.2251-0.22852-2.44824-0.3877-3.66895-0.50684
		c-8.99902-3.06641-14.86816-10.61035-18.49414-17.47949c-0.24365-0.68457-0.48633-1.36621-0.73486-2.02051
		c-0.06494-0.26855-0.17725-0.5127-0.20313-0.55859c-2.16895-5.0918-4.23877-10.4209-6.24023-15.57227l-2.51123-6.4873
		l-0.11328-0.30762c-0.33154-0.79395-0.68408-1.55664-1.03174-2.32422c-2.92822-10.16406-2.11182-20.39014,2.36816-29.84912
		C97.89404,305.60742,98.13086,305.27832,98.36182,304.92529z M298.77002,430.49121
		c-0.6665,0.79785-1.32178,1.60938-1.94385,2.45215c-4.58594,6.19629-9.14502,12.41699-13.63135,18.63965
		c-0.06543,0.08887-0.12305,0.1748-0.26074,0.38672c-0.30322,0.45313-0.56787,0.91797-0.85645,1.37891
		c-5.81201,6.45605-13.93701,10.125-22.67773,10.2002c-1.39209-0.27539-2.79199-0.51953-4.20215-0.69727
		c-8.72607-1.0957-16.05713-2.0459-23.45361-3.12598c-0.22461-0.03711-0.49316-0.0752-0.63037-0.06934
		c-0.61572-0.05371-1.18799-0.06445-1.78906-0.10352c-10.57422-2.51172-18.729-8.38184-24.78809-17.81836
		c-0.19482-0.43262-0.37012-0.86426-0.57373-1.2998c-0.07764-0.19141-0.16064-0.38477-0.24023-0.51172
		c-2.84961-5.39941-5.63037-10.96777-8.21387-16.18652l-2.73682-5.47168c-0.49854-0.98242-1.02588-1.94336-1.56396-2.89355
		c-3.55225-9.07031-3.00342-18.94922,1.5249-27.82031c0.20508-0.27832,0.41943-0.54199,0.62207-0.8252
		c0.22412-0.22461,0.36719-0.45996,0.44434-0.5918c3.66309-5.61816,7.79639-11.80078,12.94385-19.37109
		c0.14746-0.18262,0.26123-0.36914,0.36523-0.54102c0.25586-0.41699,0.48145-0.84668,0.72803-1.26465
		c6.26807-7.31934,14.43799-11.41992,23.17236-11.65137c1.52441,0.32617,3.05811,0.60547,4.60742,0.79004l11.61621,1.55664
		c4.39453,0.5957,8.78271,1.19043,13.12793,1.75879c0.23145,0.03711,0.47998,0.07715,0.58545,0.06445
		c0.93506,0.07813,1.8584,0.13965,2.78125,0.17773l-0.09131,0.09766h0.63037c9.84082,2.69238,17.71338,8.38379,22.74268,16.59668
		c0.50293,1.3877,1.04443,2.7666,1.66211,4.12988c3.45703,7.64355,6.94385,15.28223,10.45264,22.83984
		c0.62549,1.36328,1.32275,2.68164,2.0542,3.98242C303.84668,413.85254,302.94775,423.11328,298.77002,430.49121z
		 M186.40723,145.26074h0.01074c6.8584,1.71777,12.66797,6.39209,15.88135,12.81787
		c0.27539,1.13428,9.06006,27.18506,9.36328,27.89063c2.10693,9.74121,0.27002,19.83105-5.19727,28.52051
		c-0.75488,0.8667-18.88184,24.73389-19.33789,25.44922c-6.5498,7.44385-14.93262,11.38135-24.99658,11.75146
		c-0.63135-0.11377-27.15674-3.34277-28.53223-3.38379c-8.23486-2.53711-12.8457-9.59863-15.23779-15.0249
		c-0.14404-0.60693-0.27539-1.21387-0.43506-1.81934c-0.03369-0.20605-0.07813-0.44775-0.14893-0.61377
		c-2.27393-7.29688-4.36768-14.93506-6.15332-21.53076c-0.23779-0.85449-0.51123-1.67871-0.78223-2.50439
		c-1.46387-9.52539,0.71533-19.63184,6.05371-28.07031c0.59961-0.73486,1.1958-1.4751,1.77393-2.24219
		c3.9834-5.34375,8.46484-11.22168,14.5415-19.06543c0.47021-0.61719,0.90918-1.24219,1.3584-1.86328
		c6.67871-7.33496,14.68994-11.75732,22.7251-12.49023C158.48242,143.26221,185.06396,145.26074,186.40723,145.26074z
		 M39.0708,325.01172c5.55078,0.96582,11.12988,1.90527,16.76611,2.81836c1.00342,0.16016,2.03906,0.2207,3.06982,0.2959
		c6.94629,2.68555,11.71289,9.96289,14.51465,15.72656c0.29688,0.94336,0.60205,1.88672,0.94238,2.82617l1.7627,4.58789
		c2.53369,6.55664,4.83496,12.46582,7.26221,18.18848c0.06543,0.2666,0.17676,0.48438,0.21826,0.56348
		c0.36523,0.79199,0.75391,1.55566,1.13623,2.32422c2.61865,8.06738,4.27539,18.4502,0.62695,27.96973
		c-0.47949,0.81543-0.94678,1.64258-1.36963,2.50195c-2.84229,5.71191-5.86133,11.81836-8.67334,17.80371
		c-0.30859,0.67188-0.58154,1.35645-0.85498,2.04004c-1.68848,2.59668-4.49609,5.35254-8.80518,5.25684
		c-0.06445-0.01953-0.12891-0.03809-0.19092-0.05859c-15.20068-31.76953-24.96289-66.61328-28.1084-103.31836
		C37.92236,324.72461,38.47754,324.91016,39.0708,325.01172z M149.86523,525.61328l0.37256,0.07129
		c0.85303,0.15039,1.69922,0.25488,2.5459,0.36523c8.86621,2.78906,16.65918,8.21973,22.80908,15.88086
		c0.49219,0.81445,0.99463,1.62793,1.53662,2.43066l1.41943,2.06152c2.93604,4.28906,5.97461,8.5791,8.93848,12.76367
		l0.15186,0.21387c-18.19092-10.42969-35.18018-22.71875-50.7334-36.58691
		C141.42871,523.82031,145.7832,524.7627,149.86523,525.61328z M275.55371,589.37793
		c0.34326,1.21387,0.75244,2.42578,1.2334,3.63184c-3.52539-0.71387-7.02246-1.50488-10.50146-2.34082
		C269.50977,590.47656,272.60449,590.0498,275.55371,589.37793z M420.44287,378.81836
		c-0.59521,0.69629-1.18994,1.3877-1.75732,2.11621l-1.84863,2.47363c-1.91455,2.50391-3.8374,5.01758-5.74219,7.53125
		l-6.95752,9.09766c-0.72021,0.91797-1.40137,1.86426-2.05518,2.82227c-7.67432,8.14746-17.47119,10.58789-25.54102,10.89258
		c-0.854-0.15723-1.70264-0.32227-2.57324-0.4502c-0.22363-0.03125-0.41846-0.05859-0.53223-0.05273l-11.58447-1.12305
		c-4.44824-0.43945-8.90576-0.87305-13.46582-1.26855l-0.21631,0.00195c-1.22656-0.07227-2.44238-0.10352-3.65039-0.11621
		c-9.26709-2.12305-17.30322-7.6416-22.17773-15.27246c-0.51025-1.37109-1.05859-2.73047-1.68066-4.07031
		c-3.47949-7.47168-6.88135-14.96973-10.27979-22.45703l-0.1123-0.25391c-0.58447-1.27832-1.2207-2.52148-1.88477-3.74316
		c-2.81348-9.27344-1.27588-19.40039,4.26904-28.58691c0.27588-0.32227,0.5625-0.63086,0.83447-0.96094l0.30371-0.3916
		c5.06055-6.69727,10.14746-13.3916,15.34814-20.1167l0.18652-0.25342c0.354-0.49707,0.67285-1.00781,1.01318-1.50977
		c8.18359-8.88184,19.24121-13.08691,31.41846-11.7417l14.11914,1.99414c3.60254,0.50488,7.21533,1.0127,10.85889,1.54297
		c11.71826,1.62207,21.8667,9.65381,27.13135,21.44482c3.05469,7.50684,6.13818,15.00977,9.24854,22.51953
		C427.11572,358.48633,425.9917,369.91016,420.44287,378.81836z M367.35742,269.44385
		c-11.56982-1.63428-20.60352-8.70752-24.82227-19.41992l-0.0625-0.18506c-2.86621-8.38135-5.16797-15.23633-7.22705-21.49268
		c-3.22314-10.07959-0.21094-21.83691,7.86035-30.68408c5.98145-6.57324,11.47998-12.43945,16.40137-17.49805
		c8.34521-8.70947,20.49902-13.0957,32.49609-11.70898c7.97363,1.00049,15.58398,2.01563,23.26904,3.10498
		c11.16797,1.54541,20.75195,8.58984,24.41309,17.93604c2.6543,6.96826,5.36182,13.93896,8.05029,20.83008
		c3.62793,10.59766,1.42725,21.54248-6.17334,30.78662c-5.44287,6.24609-10.83154,12.49365-16.31543,18.91895
		c-7.65869,9.28516-20.73242,14.26074-33.27197,12.68066c-4.75342-0.64746-9.49365-1.26904-14.23926-1.89209L367.35742,269.44385z
		 M331.6748,166.99414c-5.44189,6.22021-10.83301,12.49561-16.31689,18.92041c-6.8877,8.35303-18.15527,13.20264-29.48193,12.94336
		c-1.03223-0.24268-2.06787-0.479-3.12305-0.67725c-0.16064-0.03369-0.38135-0.0791-0.45361-0.06836
		c-6.72656-0.91016-13.45605-1.79492-20.20947-2.67969l-4.71143-0.61816c-1.30957-0.15137-2.62109-0.25146-3.92822-0.3125
		c-8.81055-2.34082-15.75391-8.10449-19.72607-16.29248c-0.17969-0.66553-0.34131-1.33447-0.54443-1.99707
		c-0.0249-0.10303-0.05957-0.20557-0.13965-0.43604c-2.97314-8.72998-5.22363-15.4248-7.34131-21.8335
		c-0.34131-1.01563-0.72607-2.00732-1.13086-2.98828c-1.49707-8.18066,0.79395-17.07422,6.30566-24.48291
		c0.8374-0.82715,1.65625-1.67529,2.44824-2.54883c5.18506-5.66064,10.72021-11.67627,16.40137-17.49609
		c0.88525-0.91699,1.73291-1.85742,2.54834-2.81201c8.1582-7.03613,19.04639-10.48047,29.84473-9.25
		c8.30029,1.03076,15.90869,2.04736,23.26904,3.10742c11.16162,1.51611,20.74561,8.55029,24.41162,17.90479
		c2.6543,6.97168,5.36182,13.94092,8.0498,20.83203C341.47412,146.80762,339.27197,157.75146,331.6748,166.99414z
		 M232.87158,89.95996c-5.92383,6.11182-11.82813,12.50586-16.82715,17.95508c-0.7749,0.84863-1.51172,1.71875-2.229,2.60156
		c-7.12744,6.74512-16.33984,10.92627-25.36572,11.44141c-1.31299-0.22266-2.63623-0.4043-3.97852-0.51514l-5.4458-0.41748
		c-5.43164-0.42334-10.83936-0.84619-16.36328-1.21777c-1.1748-0.06885-2.34863-0.0874-3.521-0.07227
		c-4.87598-1.16895-9.59424-4.14111-11.76221-9.10645c-0.1499-1.02832-0.33496-2.04688-0.55322-3.05762
		c-1.25391-5.80664-2.44043-11.80469-3.52881-17.83057c-0.12842-0.70361-0.33398-1.37939-0.58105-2.03369
		c-0.44629-9.12793,5.58691-17.68994,10.98535-23.44531l0.21338-0.2417c6.49121-6.61035,10.94971-10.97998,15.31396-15.01953
		c6.83301-5.97266,17.57813-13.09277,30.12305-13.09277c6.07764,0.10693,12.44824,0.24023,20.07764,0.48096
		c3.93555,0.12598,13.45605,1.40039,16.84863,10.44141c1.74316,5.71191,3.51318,11.42432,5.32666,17.10059
		c2.45557,8.55469-1.26709,17.31689-6.20557,23.55469C234.53516,88.28418,233.69092,89.10742,232.87158,89.95996z
		 M120.05615,94.02686c1.11719,6.12256,2.34619,12.32764,3.64795,18.43408c0.23584,1.16309,0.53369,2.2998,0.87207,3.41846
		c0.51953,7.64893-2.36475,16.55762-8.00098,24.85645c-0.56152,0.63623-1.12793,1.26758-1.67578,1.93066l-0.21289,0.2749
		c-5.69678,7.36426-10.24463,13.32764-14.75293,19.33984c-0.75439,1.01514-1.47119,2.0542-2.16064,3.1084
		c-3.96045,4.521-10.88037,10.74072-19.64941,11.95996c-0.54346-0.07373-1.08252-0.16553-1.63525-0.2168
		c-0.25732-0.03711-0.46826-0.03516-0.63867-0.03809c-4.54346-0.19238-9.08838-0.35547-13.63184-0.51514
		c14.01025-31.46191,33.39404-60.43311,57.43555-85.5498C119.75244,92.03027,119.88477,93.0293,120.05615,94.02686z
		 M305.97949,594.77832c-1.71191-1.9248-3.36768-3.84863-4.96924-5.70313c-3.62842-4.82324-4.4248-9.10938-2.4375-13.03809
		c0.45752-0.53418,0.95947-1.02539,1.38818-1.58496c3.58545-4.70996,7.25195-9.41797,10.91943-14.07617
		c0.52344-0.66602,1.00635-1.35254,1.47803-2.04297c5.56396-5.50293,13.52637-7.77441,20.66895-8.0918
		c1.49805,0.19922,3.00586,0.3584,4.52881,0.43457c5.47021,0.34863,10.94189,0.66992,16.41113,0.96289l6.82129,0.37793
		c0.8584,0.05469,1.71826,0.05469,2.57666,0.05469l1.12646-0.04395c5.79932,0.86816,14.36182,3.26074,19.85303,9.75684
		c0.31982,0.62305,0.62939,1.24805,0.98389,1.86328l0.18311,0.30273c2.82715,4.55469,5.77295,9,8.62402,13.30273l0.854,1.27734
		c0.42188,0.63965,0.86914,1.25977,1.32959,1.87012c1.33398,3.51172,0.32568,7.12988-3.11621,11
		c-0.70068,0.79004-1.22803,1.66895-1.67578,2.5752c-17.97217,3.31641-36.32227,5.0127-54.98535,5.0127
		c-9.70459,0-19.29639-0.48145-28.76758-1.38379C307.30469,596.59668,306.73779,595.63379,305.97949,594.77832z
		 M500.54834,465.20215c-5.86816,7.4834-14.47754,12.32813-23.55615,13.41895c-1.04492-0.09375-2.10254-0.16992-3.17676-0.21289
		h-0.34277c-7.11523-0.02832-14.16846-0.15039-21.56152-0.37305c-1.43457-0.04199-2.86816-0.00391-4.2998,0.06348
		c-7.61914-1.2334-14.03076-5.4248-18.25732-11.8916c-0.22461-0.55469-0.43164-1.1123-0.67627-1.66016
		c-0.0625-0.24707-0.16211-0.44629-0.22803-0.57715c-2.84961-5.86719-5.63477-11.75391-8.39453-17.58789l-0.97119-2.05273
		c-0.56689-1.23047-1.19678-2.42188-1.85742-3.59375c-2.2959-7.76855-0.87354-16.94531,3.729-24.17285
		c0.55615-0.65137,1.10986-1.30859,1.64063-1.98926c1.46973-1.89551,2.91797-3.79688,4.3667-5.69824l2.7915-3.65918
		c1.84521-2.39941,3.68994-4.81543,5.54541-7.24316l1.96143-2.56543c0.55859-0.73926,1.0791-1.49902,1.59961-2.25781
		c7.21191-7.94043,17.79785-12.22266,28.26904-11.15625l11.7832,1.30273c3.63184,0.39648,7.29688,0.80078,11.06201,1.24609
		c9.50537,0.93652,17.57666,7.19238,21.57324,16.68066l7.09277,19.13574c3.92188,11.18262-0.64893,21.34082-5.14551,27.8584
		c-2.78271,3.74414-5.6167,7.43652-8.45166,11.12891L500.54834,465.20215z M531.8877,393.17871c0-0.00293,0-0.00293,0-0.00293
		h0.00342L531.8877,393.17871z"/>
	<g>
		<path fill="#053E3F" d="M769.29199,423.3457c-17.229,0-32.42188-2.89551-45.52588-8.65723
			c-13.10498-5.78613-24.06396-13.55859-32.87695-23.36426c-8.79053-9.80957-15.46289-20.90137-19.93701-33.28027
			c-4.50391-12.37891-6.72607-25.16113-6.72607-38.37207v-6.05566c0-12.64648,2.14404-25.02588,6.45557-37.1377
			c4.31787-12.11279,10.71875-23.04492,19.26758-32.85107c8.52295-9.80811,19.0791-17.60596,31.61816-23.36719
			c12.56836-5.78711,26.98438-8.6543,43.3291-8.6543c17.79395,0,33.46826,3.29541,47.02783,9.91455
			c13.55762,6.5918,24.46338,15.72852,32.71436,27.3584c8.25391,11.65576,13.10498,25.08105,14.58008,40.30078H819.6123
			c-1.09863-8.60107-4.20459-15.99756-9.34961-22.13428c-5.14648-6.13623-11.60254-10.85156-19.40137-14.17432
			c-7.79736-3.2959-16.45068-4.95752-25.9917-4.95752c-9.53809,0-17.55078,1.66162-25.15967,4.95752
			c-7.6123,3.29492-14.06836,8.01221-19.40137,14.17432c-5.32959,6.13672-9.4043,13.42529-12.24414,21.86572
			c-2.84082,8.44092-4.25977,17.79248-4.25977,28.05469c0,11.01367,1.55176,20.89941,4.66064,29.68945
			c3.10889,8.81445,7.52832,16.26563,13.21191,22.42773c5.67871,6.13672,12.56543,10.82715,20.62988,14.0166
			c8.06543,3.21289,17.04297,4.82227,26.95898,4.82227c13.55713,0,25.3457-2.78809,35.3418-8.3877
			c9.99609-5.60156,17.36523-12.88867,22.13232-21.86523l-6.88721,31.61914v-51.71582h36.04346v44.56152
			c-8.63086,13.02344-20.36621,23.14941-35.21191,30.38477c-14.84424,7.23535-31.99219,10.85254-51.41846,10.85254
			L769.29199,423.3457z M763.23682,345.26367v-29.1543h109.45947v29.1543H763.23682z"/>
		<path fill="#053E3F" d="M973.63477,423.3457c-13.20898,0-24.83838-2.11816-34.94043-6.3252
			c-10.0752-4.20605-18.625-9.91309-25.59082-17.04102c-6.96533-7.15332-12.24658-15.2998-15.81055-24.46387
			c-3.5625-9.16309-5.35889-18.78613-5.35889-28.88574v-5.78906c0-10.2627,1.82031-20.01465,5.49414-29.28711
			c3.67041-9.24414,9.02832-17.49805,16.07959-24.75928c7.04248-7.23535,15.67383-12.91504,25.85449-17.0415
			c10.18213-4.12598,21.59766-6.18994,34.24609-6.18994s24.00781,2.06396,34.10938,6.18994
			c10.07617,4.12646,18.64844,9.80615,25.72461,17.0415c7.04883,7.23584,12.4082,15.48682,16.0791,24.75928
			c3.66992,9.27246,5.49316,19.02441,5.49316,29.28711v5.78906c0,10.07422-1.79688,19.72266-5.36133,28.88574
			c-3.56348,9.16406-8.8418,17.33691-15.80859,24.46387c-6.96777,7.1543-15.4873,12.83496-25.5918,17.04102
			c-10.07422,4.20703-21.62402,6.3252-34.64453,6.3252H973.63477z M973.63477,390.62695
			c9.16309,0,16.96094-2.06445,23.36523-6.18848c6.40625-4.12598,11.30859-9.72852,14.71094-16.77637
			c3.40527-7.04688,5.0918-15.08594,5.0918-24.06055c0-8.97852-1.74121-17.04297-5.22461-24.19727
			c-3.48242-7.15381-8.44336-12.78125-14.84473-16.90723c-6.43262-4.12793-14.12305-6.19092-23.09863-6.19092
			c-8.97656,0-16.71973,2.06299-23.23096,6.19092c-6.51025,4.12598-11.49658,9.75342-14.97949,16.90723
			c-3.48486,7.1543-5.22363,15.21875-5.22363,24.19727c0,8.97461,1.68652,17.01367,5.0874,24.06055
			c3.40625,7.04785,8.30908,12.65039,14.71191,16.77637c6.40674,4.12402,14.30957,6.18848,23.66211,6.18848H973.63477z"/>
		<path fill="#053E3F" d="M1071.81152,245.95703v-28.59082h56.94238v28.59082H1071.81152z M1090.51953,418.11914V217.34082h38.23438
			v200.77832H1090.51953z"/>
		<path fill="#053E3F" d="M1157.34863,299.30762v-28.0542h95.97852v28.0542H1157.34863L1157.34863,299.30762z M1176.04785,418.11914
			V265.49121c0-17.0415,4.7168-29.68896,14.1748-37.94189c9.43262-8.25244,23.41992-12.37939,41.93848-12.37939h18.70117v29.42188
			h-21.46289c-5.68164,0-10.04785,1.55469-13.07617,4.66113c-3.02637,3.13623-4.5293,7.42285-4.5293,12.9165v155.94971H1176.04785
			L1176.04785,418.11914z"/>
		<path fill="#053E3F" d="M1286.87598,418.11914V217.34082h34.94043l109.99707,181.78125h8.81543l-5.49219,4.39258V217.3125
			h20.06641v200.78027h-35.20703l-110.02441-181.78076h-8.78711l5.49219-4.39502v186.20215H1286.87598L1286.87598,418.11914z"/>
		<path fill="#053E3F" d="M1573.99121,422.80762c-12.46191,0-23.28516-2.16797-32.44922-6.45801
			c-9.16504-4.31152-16.69434-10.0752-22.56055-17.33594c-5.87109-7.23535-10.2373-15.35156-13.08008-24.33105
			c-2.83887-8.97559-4.25879-18.24609-4.25879-27.78516v-3.85742c0-9.35352,1.41992-18.51758,4.25879-27.49512
			c2.84277-8.9751,7.18262-17.04004,13.08008-24.19531c5.86621-7.15576,13.2334-12.88867,22.13184-17.20313
			c8.89258-4.31396,19.29395-6.45752,31.21484-6.45752c15.2207,0,27.92188,3.40332,38.08008,10.18262
			c10.18164,6.77979,17.81543,15.46045,22.95898,25.9917c5.14648,10.55664,7.69336,21.86523,7.69336,33.97656v10.71875H1510.9668
			V332.6123H1626.75l-5.22461,7.98828c0-10.82617-1.87695-20.31055-5.625-28.45752
			c-3.75391-8.146-9.27148-14.57666-16.50684-19.23926c-7.23438-4.6626-16.26563-7.02002-27.09082-7.02002
			c-11.36035,0-20.82031,2.65186-28.32227,7.98535c-7.53027,5.33154-13.15625,12.37793-16.91016,21.16748
			c-3.74805,8.79053-5.62402,18.78467-5.62402,29.98389c0,11.20313,1.87598,21.03516,5.62402,30.11816
			c3.75391,9.08594,9.54102,16.26465,17.33594,21.59863c7.79883,5.33105,17.63184,7.98242,29.55859,7.98242
			c12.64648,0,22.90723-2.89258,30.81445-8.65234c7.87793-5.78809,12.72754-12.59375,14.57715-20.49902h19.23828
			c-1.82031,9.72656-5.68066,18.1123-11.54785,25.15918c-5.87012,7.0498-13.29102,12.51563-22.26758,16.37402
			c-8.97559,3.86035-19.23926,5.78809-30.81445,5.78809L1573.99121,422.80762z"/>
		<path fill="#053E3F" d="M1662.54883,418.11914l53.91211-76.74219v5.49219l-50.61523-74.25h22.56055l38.50684,57.20801h3.8584
			l36.5752-57.20801h21.1709l-47.5918,72.05371v-5.22363l56.64844,78.64355h-22.5625l-44.55957-61.86914h-3.56543
			l-43.16895,61.86914h-21.16895V418.11914z"/>
		<path fill="#053E3F" d="M1807.2207,288.32129v-15.67578h98.44629v15.67578H1807.2207z M1882.56836,419.78027
			c-10.07422,0-18.7832-1.47266-26.12598-4.39258c-7.34277-2.9209-13.02246-7.93164-17.04297-14.97949
			c-4.04492-7.04883-6.05469-16.53516-6.05469-28.45605V226.74512h19.80469v148.23633c0,8.43652,2.27441,14.89453,6.88281,19.39941
			c4.58301,4.5,11.0957,6.72363,19.53516,6.72363h26.125v18.70117h-23.09863L1882.56836,419.78027z"/>
	</g>
</g>
</svg>
